<?xml version="1.0" standalone="yes"?>
<svg xmlns="http://www.w3.org/2000/svg" xmlns:xlink="http://www.w3.org/1999/xlink" version="1.1" viewBox="0.0 0.0 960.0 720.0" fill="none" stroke="none" stroke-linecap="square" stroke-miterlimit="10">
  <desc>Converted from Google Docs at https://docs.google.com/drawings/d/1RJnj1qnyK0Ap-ZHdSmBb73bcNw768V7z5CLTpyUTbL8</desc>
  <clipPath id="p.0">
    <path d="m0 0l960.0 0l0 720.0l-960.0 0l0 -720.0z" clip-rule="nonzero"/>
  </clipPath>
  <g clip-path="url(#p.0)">
    <path fill="#000000" fill-opacity="0.0" d="m0 0l960.0 0l0 720.0l-960.0 0z" fill-rule="nonzero"/>
    <path fill="#9fc5e8" d="m304.28033 453.03656l0 0c0 -16.4 13.3 -29.7 29.7 -29.748627l336.78622 0c7.8898315 0 15.5 3.1 21 8.713165c5.5789185 5.6 8.7 13.1 8.7 21.035461l0 118.990906c0 16.4 -13.3 29.7 -29.7 29.748657l-336.78622 0c-16.429718 0 -29.7 -13.3 -29.7 -29.748657z" fill-rule="nonzero"/>
    <path stroke="#000000" stroke-width="2.0" stroke-linejoin="round" stroke-linecap="butt" d="m304.28033 453.03656l0 0c0 -16.4 13.3 -29.7 29.7 -29.748627l336.78622 0c7.8898315 0 15.5 3.1 21 8.713165c5.5789185 5.6 8.7 13.1 8.7 21.035461l0 118.990906c0 16.4 -13.3 29.7 -29.7 29.748657l-336.78622 0c-16.429718 0 -29.7 -13.3 -29.7 -29.748657z" fill-rule="nonzero"/>
    <path fill="#9fc5e8" d="m297.82062 144.71518l0 0c0 -20 16.2 -36.2 36.2 -36.21595l323.85162 0c9.6050415 0 18.8 3.8 25.6 10.607407c6.791809 6.8 10.6 16 10.6 25.608543l0 144.85944c0 20 -16.2 36.2 -36.2 36.215942l-323.85162 0c-20.001495 0 -36.2 -16.2 -36.2 -36.215942z" fill-rule="nonzero"/>
    <path stroke="#000000" stroke-width="2.0" stroke-linejoin="round" stroke-linecap="butt" d="m297.82062 144.71518l0 0c0 -20 16.2 -36.2 36.2 -36.21595l323.85162 0c9.6050415 0 18.8 3.8 25.6 10.607407c6.791809 6.8 10.6 16 10.6 25.608543l0 144.85944c0 20 -16.2 36.2 -36.2 36.215942l-323.85162 0c-20.001495 0 -36.2 -16.2 -36.2 -36.215942z" fill-rule="nonzero"/>
    <path fill="#cfe2f3" d="m340.07135 478.6408l0 0c0 -4.8 3.9 -8.8 8.8 -8.771851l281.73193 0c2.326416 0 4.6 0.9 6.2 2.5692139c1.6450195 1.6 2.6 3.9 2.6 6.2026367l0 35.086243c0 4.8 -3.9 8.8 -8.8 8.771851l-281.73193 0c-4.844574 0 -8.8 -3.9 -8.8 -8.771851z" fill-rule="nonzero"/>
    <path stroke="#000000" stroke-width="2.0" stroke-linejoin="round" stroke-linecap="butt" d="m340.07135 478.6408l0 0c0 -4.8 3.9 -8.8 8.8 -8.771851l281.73193 0c2.326416 0 4.6 0.9 6.2 2.5692139c1.6450195 1.6 2.6 3.9 2.6 6.2026367l0 35.086243c0 4.8 -3.9 8.8 -8.8 8.771851l-281.73193 0c-4.844574 0 -8.8 -3.9 -8.8 -8.771851z" fill-rule="nonzero"/>
    <path fill="#000000" d="m408.7326 502.04395l0 -11.453125l5.078125 0q1.53125 0 2.3 0.3125q0.796875 0.3 1.3 1.078125q0.484375 0.8 0.5 1.734375q0 1.2 -0.8 2.0625q-0.78125 0.8 -2.4 1.046875q0.609375 0.3 0.9 0.578125q0.65625 0.6 1.2 1.515625l2.0 3.125l-1.90625 0l-1.515625 -2.390625q-0.671875 -1 -1.1 -1.578125q-0.421875 -0.5 -0.8 -0.765625q-0.328125 -0.2 -0.7 -0.296875q-0.25 -0.1 -0.8 -0.0625l-1.75 0l0 5.09375l-1.515625 0zm1.515625 -6.40625l3.25 0q1.046875 0 1.6 -0.203125q0.59375 -0.2 0.9 -0.6875q0.3125 -0.5 0.3 -1.03125q0 -0.8 -0.6 -1.328125q-0.59375 -0.5 -1.9 -0.53125l-3.625 0l0 3.78125zm15.5078125 3.734375l1.453125 0.171875q-0.34375 1.3 -1.3 1.984375q-0.921875 0.7 -2.4 0.703125q-1.828125 0 -2.9 -1.125q-1.0625 -1.1 -1.1 -3.140625q0 -2.1 1.1 -3.25q1.078125 -1.2 2.8 -1.15625q1.65625 0 2.7 1.140625q1.0625 1.1 1.1 3.171875q0 0.1 0 0.375l-6.1875 0q0.078125 1.4 0.8 2.109375q0.703125 0.7 1.7 0.71875q0.78125 0 1.3 -0.40625q0.546875 -0.4 0.9 -1.296875zm-4.609375 -2.28125l4.625 0q-0.09375 -1 -0.5 -1.5625q-0.671875 -0.8 -1.7 -0.8125q-0.96875 0 -1.6 0.65625q-0.65625 0.6 -0.7 1.71875zm7.2734375 2.46875l1.390625 -0.21875q0.109375 0.8 0.6 1.296875q0.546875 0.4 1.5 0.4375q0.96875 0 1.4 -0.390625q0.46875 -0.4 0.5 -0.9375q0 -0.5 -0.4 -0.75q-0.296875 -0.2 -1.4 -0.46875q-1.546875 -0.4 -2.2 -0.671875q-0.59375 -0.3 -0.9 -0.796875q-0.296875 -0.5 -0.3 -1.109375q0 -0.6 0.2 -1.03125q0.25 -0.5 0.7 -0.78125q0.328125 -0.2 0.9 -0.40625q0.578125 -0.2 1.2 -0.171875q0.984375 0 1.7 0.28125q0.734375 0.3 1.1 0.765625q0.359375 0.5 0.5 1.28125l-1.375 0.1875q-0.09375 -0.6 -0.5 -1.0q-0.453125 -0.4 -1.3 -0.359375q-0.96875 0 -1.4 0.328125q-0.40625 0.3 -0.4 0.734375q0 0.3 0.2 0.5q0.171875 0.2 0.5 0.375q0.21875 0.1 1.2 0.359375q1.484375 0.4 2.1 0.65625q0.59375 0.2 0.9 0.734375q0.34375 0.5 0.3 1.203125q0 0.7 -0.4 1.328125q-0.40625 0.6 -1.2 0.953125q-0.765625 0.3 -1.7 0.34375q-1.625 0 -2.5 -0.671875q-0.84375 -0.7 -1.1 -2.0zm8.03125 -1.671875q0 -2.3 1.3 -3.40625q1.078125 -0.9 2.6 -0.921875q1.71875 0 2.8 1.125q1.09375 1.1 1.1 3.09375q0 1.6 -0.5 2.515625q-0.484375 0.9 -1.4 1.4375q-0.90625 0.5 -2 0.5q-1.734375 0 -2.8 -1.109375q-1.078125 -1.1 -1.1 -3.234375zm1.453125 0q0 1.6 0.7 2.390625q0.703125 0.8 1.8 0.796875q1.046875 0 1.7 -0.796875q0.703125 -0.8 0.7 -2.4375q0 -1.5 -0.7 -2.328125q-0.6875 -0.8 -1.7 -0.796875q-1.046875 0 -1.8 0.796875q-0.6875 0.8 -0.7 2.375zm13.4140625 4.15625l0 -1.21875q-0.96875 1.4 -2.6 1.40625q-0.734375 0 -1.4 -0.28125q-0.625 -0.3 -0.9 -0.703125q-0.3125 -0.4 -0.4 -1.046875q-0.078125 -0.4 -0.1 -1.3125l0 -5.140625l1.40625 0l0 4.59375q0 1.1 0.1 1.484375q0.140625 0.6 0.6 0.875q0.4375 0.3 1.1 0.3125q0.640625 0 1.2 -0.3125q0.5625 -0.3 0.8 -0.890625q0.234375 -0.6 0.2 -1.625l0 -4.4375l1.40625 0l0 8.296875l-1.25 0zm3.4453125 0l0 -8.296875l1.265625 0l0 1.25q0.484375 -0.9 0.9 -1.15625q0.40625 -0.3 0.9 -0.28125q0.703125 0 1.4 0.453125l-0.484375 1.296875q-0.515625 -0.3 -1 -0.296875q-0.453125 0 -0.8 0.28125q-0.359375 0.3 -0.5 0.765625q-0.234375 0.8 -0.2 1.640625l0 4.34375l-1.40625 0zm10.75 -3.046875l1.390625 0.1875q-0.234375 1.4 -1.2 2.234375q-0.921875 0.8 -2.3 0.8125q-1.703125 0 -2.8 -1.109375q-1.03125 -1.1 -1 -3.203125q0 -1.3 0.4 -2.34375q0.453125 -1 1.4 -1.515625q0.921875 -0.5 2 -0.5q1.359375 0 2.2 0.6875q0.859375 0.7 1.1 1.9375l-1.359375 0.203125q-0.203125 -0.8 -0.7 -1.25q-0.484375 -0.4 -1.2 -0.421875q-1.0625 0 -1.7 0.765625q-0.65625 0.8 -0.7 2.40625q0 1.7 0.6 2.4375q0.640625 0.8 1.7 0.75q0.828125 0 1.4 -0.5q0.5625 -0.5 0.7 -1.578125zm8.265625 0.375l1.453125 0.171875q-0.34375 1.3 -1.3 1.984375q-0.921875 0.7 -2.4 0.703125q-1.828125 0 -2.9 -1.125q-1.0625 -1.1 -1.1 -3.140625q0 -2.1 1.1 -3.25q1.078125 -1.2 2.8 -1.15625q1.65625 0 2.7 1.140625q1.0625 1.1 1.1 3.171875q0 0.1 0 0.375l-6.1875 0q0.078125 1.4 0.8 2.109375q0.703125 0.7 1.7 0.71875q0.78125 0 1.3 -0.40625q0.546875 -0.4 0.9 -1.296875zm-4.609375 -2.28125l4.625 0q-0.09375 -1 -0.5 -1.5625q-0.671875 -0.8 -1.7 -0.8125q-0.96875 0 -1.6 0.65625q-0.65625 0.6 -0.7 1.71875zm7.2734375 2.46875l1.390625 -0.21875q0.109375 0.8 0.6 1.296875q0.546875 0.4 1.5 0.4375q0.96875 0 1.4 -0.390625q0.46875 -0.4 0.5 -0.9375q0 -0.5 -0.4 -0.75q-0.296875 -0.2 -1.4 -0.46875q-1.546875 -0.4 -2.2 -0.671875q-0.59375 -0.3 -0.9 -0.796875q-0.296875 -0.5 -0.3 -1.109375q0 -0.6 0.2 -1.03125q0.25 -0.5 0.7 -0.78125q0.328125 -0.2 0.9 -0.40625q0.578125 -0.2 1.2 -0.171875q0.984375 0 1.7 0.28125q0.734375 0.3 1.1 0.765625q0.359375 0.5 0.5 1.28125l-1.375 0.1875q-0.09375 -0.6 -0.5 -1.0q-0.453125 -0.4 -1.3 -0.359375q-0.96875 0 -1.4 0.328125q-0.40625 0.3 -0.4 0.734375q0 0.3 0.2 0.5q0.171875 0.2 0.5 0.375q0.21875 0.1 1.2 0.359375q1.484375 0.4 2.1 0.65625q0.59375 0.2 0.9 0.734375q0.34375 0.5 0.3 1.203125q0 0.7 -0.4 1.328125q-0.40625 0.6 -1.2 0.953125q-0.765625 0.3 -1.7 0.34375q-1.625 0 -2.5 -0.671875q-0.84375 -0.7 -1.1 -2.0zm15.6953125 5.859375q-1.171875 -1.5 -2 -3.4375q-0.796875 -2 -0.8 -4.09375q0 -1.9 0.6 -3.5625q0.703125 -2 2.2 -3.9375l1.0 0q-0.9375 1.6 -1.2 2.328125q-0.46875 1.1 -0.8 2.25q-0.328125 1.5 -0.3 2.9375q0 3.8 2.3 7.515625l-1.0 0zm2.84375 -3.375l0 -11.453125l5.078125 0q1.53125 0 2.3 0.3125q0.796875 0.3 1.3 1.078125q0.484375 0.8 0.5 1.734375q0 1.2 -0.8 2.0625q-0.78125 0.8 -2.4 1.046875q0.609375 0.3 0.9 0.578125q0.65625 0.6 1.2 1.515625l2.0 3.125l-1.90625 0l-1.515625 -2.390625q-0.671875 -1 -1.1 -1.578125q-0.421875 -0.5 -0.8 -0.765625q-0.328125 -0.2 -0.7 -0.296875q-0.25 -0.1 -0.8 -0.0625l-1.75 0l0 5.09375l-1.515625 0zm1.515625 -6.40625l3.25 0q1.046875 0 1.6 -0.203125q0.59375 -0.2 0.9 -0.6875q0.3125 -0.5 0.3 -1.03125q0 -0.8 -0.6 -1.328125q-0.59375 -0.5 -1.9 -0.53125l-3.625 0l0 3.78125zm10.0390625 6.40625l0 -11.453125l8.28125 0l0 1.34375l-6.765625 0l0 3.515625l6.34375 0l0 1.34375l-6.34375 0l0 3.890625l7.03125 0l0 1.359375l-8.546875 0zm10.125 -3.6875l1.4375 -0.125q0.09375 0.9 0.5 1.421875q0.375 0.5 1.2 0.890625q0.78125 0.3 1.8 0.328125q0.875 0 1.5 -0.25q0.671875 -0.3 1 -0.703125q0.328125 -0.5 0.3 -0.984375q0 -0.5 -0.3 -0.9375q-0.3125 -0.4 -1 -0.6875q-0.453125 -0.2 -2 -0.546875q-1.578125 -0.4 -2.2 -0.71875q-0.8125 -0.4 -1.2 -1.0625q-0.40625 -0.6 -0.4 -1.4375q0 -0.9 0.5 -1.609375q0.5 -0.8 1.4 -1.15625q0.953125 -0.4 2.1 -0.390625q1.28125 0 2.2 0.421875q0.96875 0.4 1.5 1.203125q0.53125 0.8 0.6 1.796875l-1.453125 0.109375q-0.125 -1.1 -0.8 -1.625q-0.671875 -0.6 -2 -0.5625q-1.375 0 -2 0.5q-0.625 0.5 -0.6 1.21875q0 0.6 0.4 1.015625q0.4375 0.4 2.3 0.8125q1.859375 0.4 2.5 0.734375q1.0 0.5 1.5 1.171875q0.484375 0.7 0.5 1.625q0 0.9 -0.5 1.71875q-0.515625 0.8 -1.5 1.265625q-0.984375 0.5 -2.2 0.453125q-1.5625 0 -2.6 -0.453125q-1.046875 -0.5 -1.7 -1.375q-0.59375 -0.9 -0.6 -2.0625zm14.109375 3.6875l0 -10.109375l-3.78125 0l0 -1.34375l9.078125 0l0 1.34375l-3.78125 0l0 10.109375l-1.515625 0zm10.03125 0l4.40625 -11.453125l1.640625 0l4.6875 11.453125l-1.734375 0l-1.328125 -3.46875l-4.796875 0l-1.25 3.46875l-1.625 0zm3.3125 -4.703125l3.890625 0l-1.203125 -3.171875q-0.546875 -1.5 -0.8 -2.375q-0.21875 1.1 -0.6 2.1875l-1.265625 3.359375zm8.625 4.703125l0 -11.453125l4.328125 0q1.140625 0 1.7 0.109375q0.84375 0.1 1.4 0.53125q0.578125 0.4 0.9 1.109375q0.359375 0.7 0.4 1.5625q0 1.5 -0.9 2.46875q-0.921875 1 -3.4 1.015625l-2.9375 0l0 4.65625l-1.515625 0zm1.515625 -6.015625l2.96875 0q1.46875 0 2.1 -0.546875q0.625 -0.5 0.6 -1.53125q0 -0.7 -0.4 -1.234375q-0.359375 -0.5 -1 -0.671875q-0.375 -0.1 -1.4 -0.109375l-2.9375 0l0 4.09375zm9.421875 6.015625l0 -11.453125l1.515625 0l0 11.453125l-1.515625 0zm4.9296875 3.375l-1.015625 0q2.34375 -3.8 2.3 -7.515625q0 -1.5 -0.3 -2.921875q-0.265625 -1.2 -0.7 -2.25q-0.3125 -0.7 -1.3 -2.34375l1.015625 0q1.46875 2 2.2 3.9375q0.59375 1.7 0.6 3.5625q0 2.1 -0.8 4.09375q-0.796875 2 -2 3.4375z" fill-rule="nonzero"/>
    <path fill="#cfe2f3" d="m340.07135 538.83136l0 0c0 -4.8 3.9 -8.8 8.8 -8.77179l281.73193 0c2.326416 0 4.6 0.9 6.2 2.5692139c1.6450195 1.6 2.6 3.9 2.6 6.2025757l0 35.086304c0 4.8 -3.9 8.8 -8.8 8.77179l-281.73193 0c-4.844574 0 -8.8 -3.9 -8.8 -8.77179z" fill-rule="nonzero"/>
    <path stroke="#000000" stroke-width="2.0" stroke-linejoin="round" stroke-linecap="butt" d="m340.07135 538.83136l0 0c0 -4.8 3.9 -8.8 8.8 -8.77179l281.73193 0c2.326416 0 4.6 0.9 6.2 2.5692139c1.6450195 1.6 2.6 3.9 2.6 6.2025757l0 35.086304c0 4.8 -3.9 8.8 -8.8 8.77179l-281.73193 0c-4.844574 0 -8.8 -3.9 -8.8 -8.77179z" fill-rule="nonzero"/>
    <path fill="#000000" d="m414.46307 552.7345l0 -11.453125l4.328125 0q1.140625 0 1.7 0.109375q0.84375 0.1 1.4 0.53125q0.578125 0.4 0.9 1.109375q0.359375 0.7 0.4 1.5625q0 1.5 -0.9 2.46875q-0.921875 1 -3.4 1.015625l-2.9375 0l0 4.65625l-1.515625 0zm1.515625 -6.015625l2.96875 0q1.46875 0 2.1 -0.546875q0.625 -0.5 0.6 -1.53125q0 -0.7 -0.4 -1.234375q-0.359375 -0.5 -1 -0.671875q-0.375 -0.1 -1.4 -0.109375l-2.9375 0l0 4.09375zm14.65625 3.34375l1.453125 0.171875q-0.34375 1.3 -1.3 1.984375q-0.921875 0.7 -2.4 0.703125q-1.828125 0 -2.9 -1.125q-1.0625 -1.1 -1.1 -3.140625q0 -2.1 1.1 -3.25q1.078125 -1.2 2.8 -1.15625q1.65625 0 2.7 1.140625q1.0625 1.1 1.1 3.171875q0 0.1 0 0.375l-6.1875 0q0.078125 1.4 0.8 2.109375q0.703125 0.7 1.7 0.71875q0.78125 0 1.3 -0.40625q0.546875 -0.4 0.9 -1.296875zm-4.609375 -2.28125l4.625 0q-0.09375 -1 -0.5 -1.5625q-0.671875 -0.8 -1.7 -0.8125q-0.96875 0 -1.6 0.65625q-0.65625 0.6 -0.7 1.71875zm7.8203125 4.953125l0 -8.296875l1.265625 0l0 1.25q0.484375 -0.9 0.9 -1.15625q0.40625 -0.3 0.9 -0.28125q0.703125 0 1.4 0.453125l-0.484375 1.296875q-0.515625 -0.3 -1 -0.296875q-0.453125 0 -0.8 0.28125q-0.359375 0.3 -0.5 0.765625q-0.234375 0.8 -0.2 1.640625l0 4.34375l-1.40625 0zm4.78125 -2.484375l1.390625 -0.21875q0.109375 0.8 0.6 1.296875q0.546875 0.4 1.5 0.4375q0.96875 0 1.4 -0.390625q0.46875 -0.4 0.5 -0.9375q0 -0.5 -0.4 -0.75q-0.296875 -0.2 -1.4 -0.46875q-1.546875 -0.4 -2.2 -0.671875q-0.59375 -0.3 -0.9 -0.796875q-0.296875 -0.5 -0.3 -1.109375q0 -0.6 0.2 -1.03125q0.25 -0.5 0.7 -0.78125q0.328125 -0.2 0.9 -0.40625q0.578125 -0.2 1.2 -0.171875q0.984375 0 1.7 0.28125q0.734375 0.3 1.1 0.765625q0.359375 0.5 0.5 1.28125l-1.375 0.1875q-0.09375 -0.6 -0.5 -1.0q-0.453125 -0.4 -1.3 -0.359375q-0.96875 0 -1.4 0.328125q-0.40625 0.3 -0.4 0.734375q0 0.3 0.2 0.5q0.171875 0.2 0.5 0.375q0.21875 0.1 1.2 0.359375q1.484375 0.4 2.1 0.65625q0.59375 0.2 0.9 0.734375q0.34375 0.5 0.3 1.203125q0 0.7 -0.4 1.328125q-0.40625 0.6 -1.2 0.953125q-0.765625 0.3 -1.7 0.34375q-1.625 0 -2.5 -0.671875q-0.84375 -0.7 -1.1 -2.0zm8.5625 -7.359375l0 -1.609375l1.40625 0l0 1.609375l-1.40625 0zm0 9.84375l0 -8.296875l1.40625 0l0 8.296875l-1.40625 0zm2.9921875 -2.484375l1.390625 -0.21875q0.109375 0.8 0.6 1.296875q0.546875 0.4 1.5 0.4375q0.96875 0 1.4 -0.390625q0.46875 -0.4 0.5 -0.9375q0 -0.5 -0.4 -0.75q-0.296875 -0.2 -1.4 -0.46875q-1.546875 -0.4 -2.2 -0.671875q-0.59375 -0.3 -0.9 -0.796875q-0.296875 -0.5 -0.3 -1.109375q0 -0.6 0.2 -1.03125q0.25 -0.5 0.7 -0.78125q0.328125 -0.2 0.9 -0.40625q0.578125 -0.2 1.2 -0.171875q0.984375 0 1.7 0.28125q0.734375 0.3 1.1 0.765625q0.359375 0.5 0.5 1.28125l-1.375 0.1875q-0.09375 -0.6 -0.5 -1.0q-0.453125 -0.4 -1.3 -0.359375q-0.96875 0 -1.4 0.328125q-0.40625 0.3 -0.4 0.734375q0 0.3 0.2 0.5q0.171875 0.2 0.5 0.375q0.21875 0.1 1.2 0.359375q1.484375 0.4 2.1 0.65625q0.59375 0.2 0.9 0.734375q0.34375 0.5 0.3 1.203125q0 0.7 -0.4 1.328125q-0.40625 0.6 -1.2 0.953125q-0.765625 0.3 -1.7 0.34375q-1.625 0 -2.5 -0.671875q-0.84375 -0.7 -1.1 -2.0zm11.625 1.21875l0.203125 1.25q-0.59375 0.1 -1.1 0.125q-0.765625 0 -1.2 -0.234375q-0.421875 -0.2 -0.6 -0.640625q-0.171875 -0.4 -0.2 -1.671875l0 -4.765625l-1.03125 0l0 -1.09375l1.03125 0l0 -2.0625l1.40625 -0.84375l0 2.90625l1.40625 0l0 1.09375l-1.40625 0l0 4.84375q0 0.6 0.1 0.78125q0.078125 0.2 0.2 0.28125q0.171875 0.1 0.5 0.09375q0.234375 0 0.6 -0.0625zm7.0546875 -1.40625l1.453125 0.171875q-0.34375 1.3 -1.3 1.984375q-0.921875 0.7 -2.4 0.703125q-1.828125 0 -2.9 -1.125q-1.0625 -1.1 -1.1 -3.140625q0 -2.1 1.1 -3.25q1.078125 -1.2 2.8 -1.15625q1.65625 0 2.7 1.140625q1.0625 1.1 1.1 3.171875q0 0.1 0 0.375l-6.1875 0q0.078125 1.4 0.8 2.109375q0.703125 0.7 1.7 0.71875q0.78125 0 1.3 -0.40625q0.546875 -0.4 0.9 -1.296875zm-4.609375 -2.28125l4.625 0q-0.09375 -1 -0.5 -1.5625q-0.671875 -0.8 -1.7 -0.8125q-0.96875 0 -1.6 0.65625q-0.65625 0.6 -0.7 1.71875zm13.2109375 4.953125l0 -1.046875q-0.78125 1.2 -2.3 1.234375q-1.0 0 -1.8 -0.546875q-0.828125 -0.5 -1.3 -1.53125q-0.453125 -1 -0.5 -2.25q0 -1.2 0.4 -2.25q0.421875 -1 1.2 -1.546875q0.828125 -0.5 1.9 -0.546875q0.75 0 1.3 0.3125q0.59375 0.3 1 0.828125l0 -4.109375l1.40625 0l0 11.453125l-1.3125 0zm-4.4375 -4.140625q0 1.6 0.7 2.390625q0.671875 0.8 1.6 0.78125q0.921875 0 1.6 -0.75q0.65625 -0.8 0.7 -2.3125q0 -1.7 -0.7 -2.5q-0.65625 -0.8 -1.6 -0.796875q-0.9375 0 -1.6 0.765625q-0.625 0.8 -0.6 2.421875zm12.578125 4.140625l0 -11.453125l3.953125 0q1.328125 0 2 0.15625q0.984375 0.2 1.7 0.828125q0.90625 0.8 1.3 1.953125q0.453125 1.2 0.5 2.71875q0 1.3 -0.3 2.328125q-0.296875 1 -0.8 1.65625q-0.46875 0.7 -1 1.046875q-0.5625 0.4 -1.4 0.578125q-0.796875 0.2 -1.8 0.1875l-4.140625 0zm1.515625 -1.359375l2.453125 0q1.125 0 1.8 -0.203125q0.65625 -0.2 1 -0.59375q0.546875 -0.5 0.8 -1.453125q0.296875 -0.9 0.3 -2.203125q0 -1.8 -0.6 -2.765625q-0.578125 -1 -1.4 -1.296875q-0.609375 -0.2 -2 -0.234375l-2.40625 0l0 8.75zm15.2734375 0.328125q-0.78125 0.7 -1.5 0.953125q-0.71875 0.3 -1.5 0.265625q-1.375 0 -2.1 -0.671875q-0.734375 -0.7 -0.7 -1.703125q0 -0.6 0.3 -1.109375q0.28125 -0.5 0.7 -0.8125q0.453125 -0.3 1 -0.46875q0.421875 -0.1 1.2 -0.203125q1.703125 -0.2 2.5 -0.484375q0 -0.3 0 -0.375q0 -0.9 -0.4 -1.203125q-0.546875 -0.5 -1.6 -0.484375q-0.984375 0 -1.5 0.359375q-0.46875 0.3 -0.7 1.21875l-1.375 -0.1875q0.1875 -0.9 0.6 -1.421875q0.4375 -0.5 1.2 -0.828125q0.8125 -0.3 1.9 -0.296875q1.0625 0 1.7 0.25q0.671875 0.2 1 0.625q0.3125 0.4 0.4 0.953125q0.078125 0.4 0.1 1.296875l0 1.875q0 2 0.1 2.484375q0.09375 0.5 0.4 1.0l-1.46875 0q-0.21875 -0.4 -0.3 -1.03125zm-0.109375 -3.140625q-0.765625 0.3 -2.3 0.53125q-0.875 0.1 -1.2 0.28125q-0.359375 0.2 -0.6 0.46875q-0.1875 0.3 -0.2 0.65625q0 0.6 0.4 0.9375q0.4375 0.4 1.2 0.375q0.8125 0 1.4 -0.34375q0.640625 -0.4 0.9 -0.984375q0.234375 -0.5 0.2 -1.40625l0 -0.515625zm6.6640625 2.90625l0.203125 1.25q-0.59375 0.1 -1.1 0.125q-0.765625 0 -1.2 -0.234375q-0.421875 -0.2 -0.6 -0.640625q-0.171875 -0.4 -0.2 -1.671875l0 -4.765625l-1.03125 0l0 -1.09375l1.03125 0l0 -2.0625l1.40625 -0.84375l0 2.90625l1.40625 0l0 1.09375l-1.40625 0l0 4.84375q0 0.6 0.1 0.78125q0.078125 0.2 0.2 0.28125q0.171875 0.1 0.5 0.09375q0.234375 0 0.6 -0.0625zm6.7890625 0.234375q-0.78125 0.7 -1.5 0.953125q-0.71875 0.3 -1.5 0.265625q-1.375 0 -2.1 -0.671875q-0.734375 -0.7 -0.7 -1.703125q0 -0.6 0.3 -1.109375q0.28125 -0.5 0.7 -0.8125q0.453125 -0.3 1 -0.46875q0.421875 -0.1 1.2 -0.203125q1.703125 -0.2 2.5 -0.484375q0 -0.3 0 -0.375q0 -0.9 -0.4 -1.203125q-0.546875 -0.5 -1.6 -0.484375q-0.984375 0 -1.5 0.359375q-0.46875 0.3 -0.7 1.21875l-1.375 -0.1875q0.1875 -0.9 0.6 -1.421875q0.4375 -0.5 1.2 -0.828125q0.8125 -0.3 1.9 -0.296875q1.0625 0 1.7 0.25q0.671875 0.2 1 0.625q0.3125 0.4 0.4 0.953125q0.078125 0.4 0.1 1.296875l0 1.875q0 2 0.1 2.484375q0.09375 0.5 0.4 1.0l-1.46875 0q-0.21875 -0.4 -0.3 -1.03125zm-0.109375 -3.140625q-0.765625 0.3 -2.3 0.53125q-0.875 0.1 -1.2 0.28125q-0.359375 0.2 -0.6 0.46875q-0.1875 0.3 -0.2 0.65625q0 0.6 0.4 0.9375q0.4375 0.4 1.2 0.375q0.8125 0 1.4 -0.34375q0.640625 -0.4 0.9 -0.984375q0.234375 -0.5 0.2 -1.40625l0 -0.515625zm8.171875 4.171875l0 -11.453125l2.28125 0l2.71875 8.109375q0.375 1.1 0.5 1.6875q0.1875 -0.6 0.6 -1.828125l2.734375 -7.96875l2.046875 0l0 11.453125l-1.46875 0l0 -9.59375l-3.328125 9.59375l-1.359375 0l-3.3125 -9.75l0 9.75l-1.46875 0zm12.671875 -4.15625q0 -2.3 1.3 -3.40625q1.078125 -0.9 2.6 -0.921875q1.71875 0 2.8 1.125q1.09375 1.1 1.1 3.09375q0 1.6 -0.5 2.515625q-0.484375 0.9 -1.4 1.4375q-0.90625 0.5 -2 0.5q-1.734375 0 -2.8 -1.109375q-1.078125 -1.1 -1.1 -3.234375zm1.453125 0q0 1.6 0.7 2.390625q0.703125 0.8 1.8 0.796875q1.046875 0 1.7 -0.796875q0.703125 -0.8 0.7 -2.4375q0 -1.5 -0.7 -2.328125q-0.6875 -0.8 -1.7 -0.796875q-1.046875 0 -1.8 0.796875q-0.6875 0.8 -0.7 2.375zm13.3515625 4.15625l0 -1.046875q-0.78125 1.2 -2.3 1.234375q-1.0 0 -1.8 -0.546875q-0.828125 -0.5 -1.3 -1.53125q-0.453125 -1 -0.5 -2.25q0 -1.2 0.4 -2.25q0.421875 -1 1.2 -1.546875q0.828125 -0.5 1.9 -0.546875q0.75 0 1.3 0.3125q0.59375 0.3 1 0.828125l0 -4.109375l1.40625 0l0 11.453125l-1.3125 0zm-4.4375 -4.140625q0 1.6 0.7 2.390625q0.671875 0.8 1.6 0.78125q0.921875 0 1.6 -0.75q0.65625 -0.8 0.7 -2.3125q0 -1.7 -0.7 -2.5q-0.65625 -0.8 -1.6 -0.796875q-0.9375 0 -1.6 0.765625q-0.625 0.8 -0.6 2.421875zm13.6328125 1.46875l1.453125 0.171875q-0.34375 1.3 -1.3 1.984375q-0.921875 0.7 -2.4 0.703125q-1.828125 0 -2.9 -1.125q-1.0625 -1.1 -1.1 -3.140625q0 -2.1 1.1 -3.25q1.078125 -1.2 2.8 -1.15625q1.65625 0 2.7 1.140625q1.0625 1.1 1.1 3.171875q0 0.1 0 0.375l-6.1875 0q0.078125 1.4 0.8 2.109375q0.703125 0.7 1.7 0.71875q0.78125 0 1.3 -0.40625q0.546875 -0.4 0.9 -1.296875zm-4.609375 -2.28125l4.625 0q-0.09375 -1 -0.5 -1.5625q-0.671875 -0.8 -1.7 -0.8125q-0.96875 0 -1.6 0.65625q-0.65625 0.6 -0.7 1.71875zm7.8046875 4.953125l0 -11.453125l1.40625 0l0 11.453125l-1.40625 0z" fill-rule="nonzero"/>
    <path fill="#000000" d="m414.31854 575.1095q-1.171875 -1.5 -2 -3.4375q-0.796875 -2 -0.8 -4.09375q0 -1.9 0.6 -3.5625q0.703125 -2 2.2 -3.9375l1.0 0q-0.9375 1.6 -1.2 2.328125q-0.46875 1.1 -0.8 2.25q-0.328125 1.5 -0.3 2.9375q0 3.8 2.3 7.515625l-1.0 0zm2.8125 -3.375l0 -11.453125l4.328125 0q1.140625 0 1.7 0.109375q0.84375 0.1 1.4 0.53125q0.578125 0.4 0.9 1.109375q0.359375 0.7 0.4 1.5625q0 1.5 -0.9 2.46875q-0.921875 1 -3.4 1.015625l-2.9375 0l0 4.65625l-1.515625 0zm1.515625 -6.015625l2.96875 0q1.46875 0 2.1 -0.546875q0.625 -0.5 0.6 -1.53125q0 -0.7 -0.4 -1.234375q-0.359375 -0.5 -1 -0.671875q-0.375 -0.1 -1.4 -0.109375l-2.9375 0l0 4.09375zm8.921875 9.21875l-0.15625 -1.328125q0.453125 0.1 0.8 0.125q0.46875 0 0.8 -0.15625q0.28125 -0.2 0.5 -0.4375q0.125 -0.2 0.4 -1.046875q0.046875 -0.1 0.1 -0.34375l-3.140625 -8.3125l1.515625 0l1.71875 4.796875q0.34375 0.9 0.6 1.921875q0.234375 -1 0.6 -1.890625l1.765625 -4.828125l1.40625 0l-3.15625 8.4375q-0.5 1.4 -0.8 1.890625q-0.375 0.7 -0.9 1.015625q-0.484375 0.3 -1.2 0.328125q-0.40625 0 -0.9 -0.171875zm11.125 -4.46875l0.203125 1.25q-0.59375 0.1 -1.1 0.125q-0.765625 0 -1.2 -0.234375q-0.421875 -0.2 -0.6 -0.640625q-0.171875 -0.4 -0.2 -1.671875l0 -4.765625l-1.03125 0l0 -1.09375l1.03125 0l0 -2.0625l1.40625 -0.84375l0 2.90625l1.40625 0l0 1.09375l-1.40625 0l0 4.84375q0 0.6 0.1 0.78125q0.078125 0.2 0.2 0.28125q0.171875 0.1 0.5 0.09375q0.234375 0 0.6 -0.0625zm1.3828125 1.265625l0 -11.453125l1.40625 0l0 4.109375q0.984375 -1.1 2.5 -1.140625q0.921875 0 1.6 0.359375q0.6875 0.4 1 1.0q0.296875 0.6 0.3 1.859375l0 5.265625l-1.40625 0l0 -5.265625q0 -1 -0.5 -1.53125q-0.453125 -0.5 -1.3 -0.484375q-0.625 0 -1.2 0.328125q-0.546875 0.3 -0.8 0.890625q-0.234375 0.5 -0.2 1.515625l0 4.546875l-1.40625 0zm8.3671875 -4.15625q0 -2.3 1.3 -3.40625q1.078125 -0.9 2.6 -0.921875q1.71875 0 2.8 1.125q1.09375 1.1 1.1 3.09375q0 1.6 -0.5 2.515625q-0.484375 0.9 -1.4 1.4375q-0.90625 0.5 -2 0.5q-1.734375 0 -2.8 -1.109375q-1.078125 -1.1 -1.1 -3.234375zm1.453125 0q0 1.6 0.7 2.390625q0.703125 0.8 1.8 0.796875q1.046875 0 1.7 -0.796875q0.703125 -0.8 0.7 -2.4375q0 -1.5 -0.7 -2.328125q-0.6875 -0.8 -1.7 -0.796875q-1.046875 0 -1.8 0.796875q-0.6875 0.8 -0.7 2.375zm7.9765625 4.15625l0 -8.296875l1.265625 0l0 1.171875q0.90625 -1.4 2.6 -1.359375q0.75 0 1.4 0.265625q0.625 0.3 0.9 0.703125q0.3125 0.4 0.4 1.046875q0.078125 0.4 0.1 1.359375l0 5.109375l-1.40625 0l0 -5.046875q0 -0.9 -0.2 -1.28125q-0.15625 -0.4 -0.6 -0.6875q-0.40625 -0.2 -1 -0.25q-0.90625 0 -1.6 0.578125q-0.640625 0.6 -0.6 2.15625l0 4.53125l-1.40625 0zm7.8359375 0.203125l3.328125 -11.859375l1.125 0l-3.3125 11.859375l-1.140625 0zm5.1640625 -3.890625l1.4375 -0.125q0.09375 0.9 0.5 1.421875q0.375 0.5 1.2 0.890625q0.78125 0.3 1.8 0.328125q0.875 0 1.5 -0.25q0.671875 -0.3 1 -0.703125q0.328125 -0.5 0.3 -0.984375q0 -0.5 -0.3 -0.9375q-0.3125 -0.4 -1 -0.6875q-0.453125 -0.2 -2 -0.546875q-1.578125 -0.4 -2.2 -0.71875q-0.8125 -0.4 -1.2 -1.0625q-0.40625 -0.6 -0.4 -1.4375q0 -0.9 0.5 -1.609375q0.5 -0.8 1.4 -1.15625q0.953125 -0.4 2.1 -0.390625q1.28125 0 2.2 0.421875q0.96875 0.4 1.5 1.203125q0.53125 0.8 0.6 1.796875l-1.453125 0.109375q-0.125 -1.1 -0.8 -1.625q-0.671875 -0.6 -2 -0.5625q-1.375 0 -2 0.5q-0.625 0.5 -0.6 1.21875q0 0.6 0.4 1.015625q0.4375 0.4 2.3 0.8125q1.859375 0.4 2.5 0.734375q1.0 0.5 1.5 1.171875q0.484375 0.7 0.5 1.625q0 0.9 -0.5 1.71875q-0.515625 0.8 -1.5 1.265625q-0.984375 0.5 -2.2 0.453125q-1.5625 0 -2.6 -0.453125q-1.046875 -0.5 -1.7 -1.375q-0.59375 -0.9 -0.6 -2.0625zm19.875 2.453125q1.046875 0.7 1.9 1.0625l-0.4375 1.0625q-1.234375 -0.4 -2.5 -1.40625q-1.265625 0.7 -2.8 0.71875q-1.546875 0 -2.8 -0.75q-1.265625 -0.8 -2 -2.125q-0.6875 -1.4 -0.7 -3.0625q0 -1.7 0.7 -3.078125q0.6875 -1.4 2 -2.109375q1.28125 -0.7 2.8 -0.734375q1.59375 0 2.9 0.75q1.28125 0.8 1.9 2.109375q0.671875 1.4 0.7 3.0625q0 1.4 -0.4 2.546875q-0.421875 1.1 -1.3 1.953125zm-3.34375 -1.9375q1.3125 0.4 2.2 1.09375q1.328125 -1.2 1.3 -3.65625q0 -1.4 -0.5 -2.421875q-0.46875 -1 -1.4 -1.625q-0.90625 -0.6 -2 -0.578125q-1.703125 0 -2.8 1.171875q-1.109375 1.2 -1.1 3.453125q0 2.2 1.1 3.4375q1.109375 1.2 2.8 1.1875q0.8125 0 1.5 -0.296875q-0.71875 -0.5 -1.5 -0.65625l0.359375 -1.109375zm7.0390625 3.171875l0 -11.453125l1.515625 0l0 10.09375l5.640625 0l0 1.359375l-7.15625 0zm7.6953125 0l4.40625 -11.453125l1.640625 0l4.6875 11.453125l-1.734375 0l-1.328125 -3.46875l-4.796875 0l-1.25 3.46875l-1.625 0zm3.3125 -4.703125l3.890625 0l-1.203125 -3.171875q-0.546875 -1.5 -0.8 -2.375q-0.21875 1.1 -0.6 2.1875l-1.265625 3.359375zm8.421875 4.703125l0 -11.453125l1.40625 0l0 11.453125l-1.40625 0zm8.9921875 -3.046875l1.390625 0.1875q-0.234375 1.4 -1.2 2.234375q-0.921875 0.8 -2.3 0.8125q-1.703125 0 -2.8 -1.109375q-1.03125 -1.1 -1 -3.203125q0 -1.3 0.4 -2.34375q0.453125 -1 1.4 -1.515625q0.921875 -0.5 2 -0.5q1.359375 0 2.2 0.6875q0.859375 0.7 1.1 1.9375l-1.359375 0.203125q-0.203125 -0.8 -0.7 -1.25q-0.484375 -0.4 -1.2 -0.421875q-1.0625 0 -1.7 0.765625q-0.65625 0.8 -0.7 2.40625q0 1.7 0.6 2.4375q0.640625 0.8 1.7 0.75q0.828125 0 1.4 -0.5q0.5625 -0.5 0.7 -1.578125zm2.59375 3.046875l0 -11.453125l1.40625 0l0 4.109375q0.984375 -1.1 2.5 -1.140625q0.921875 0 1.6 0.359375q0.6875 0.4 1 1.0q0.296875 0.6 0.3 1.859375l0 5.265625l-1.40625 0l0 -5.265625q0 -1 -0.5 -1.53125q-0.453125 -0.5 -1.3 -0.484375q-0.625 0 -1.2 0.328125q-0.546875 0.3 -0.8 0.890625q-0.234375 0.5 -0.2 1.515625l0 4.546875l-1.40625 0zm14.5703125 -2.671875l1.453125 0.171875q-0.34375 1.3 -1.3 1.984375q-0.921875 0.7 -2.4 0.703125q-1.828125 0 -2.9 -1.125q-1.0625 -1.1 -1.1 -3.140625q0 -2.1 1.1 -3.25q1.078125 -1.2 2.8 -1.15625q1.65625 0 2.7 1.140625q1.0625 1.1 1.1 3.171875q0 0.1 0 0.375l-6.1875 0q0.078125 1.4 0.8 2.109375q0.703125 0.7 1.7 0.71875q0.78125 0 1.3 -0.40625q0.546875 -0.4 0.9 -1.296875zm-4.609375 -2.28125l4.625 0q-0.09375 -1 -0.5 -1.5625q-0.671875 -0.8 -1.7 -0.8125q-0.96875 0 -1.6 0.65625q-0.65625 0.6 -0.7 1.71875zm7.8359375 4.953125l0 -8.296875l1.25 0l0 1.15625q0.390625 -0.6 1 -0.96875q0.65625 -0.4 1.5 -0.375q0.921875 0 1.5 0.390625q0.59375 0.4 0.8 1.0625q0.984375 -1.5 2.6 -1.453125q1.234375 0 1.9 0.6875q0.671875 0.7 0.7 2.09375l0 5.703125l-1.390625 0l0 -5.234375q0 -0.8 -0.1 -1.203125q-0.140625 -0.4 -0.5 -0.59375q-0.359375 -0.2 -0.8 -0.234375q-0.875 0 -1.5 0.578125q-0.578125 0.6 -0.6 1.859375l0 4.828125l-1.40625 0l0 -5.390625q0 -0.9 -0.3 -1.40625q-0.34375 -0.5 -1.1 -0.46875q-0.59375 0 -1.1 0.3125q-0.5 0.3 -0.7 0.921875q-0.21875 0.6 -0.2 1.71875l0 4.3125l-1.40625 0zm13.265625 3.203125l-0.15625 -1.328125q0.453125 0.1 0.8 0.125q0.46875 0 0.8 -0.15625q0.28125 -0.2 0.5 -0.4375q0.125 -0.2 0.4 -1.046875q0.046875 -0.1 0.1 -0.34375l-3.140625 -8.3125l1.515625 0l1.71875 4.796875q0.34375 0.9 0.6 1.921875q0.234375 -1 0.6 -1.890625l1.765625 -4.828125l1.40625 0l-3.15625 8.4375q-0.5 1.4 -0.8 1.890625q-0.375 0.7 -0.9 1.015625q-0.484375 0.3 -1.2 0.328125q-0.40625 0 -0.9 -0.171875zm8.984375 0.171875l-1.015625 0q2.34375 -3.8 2.3 -7.515625q0 -1.5 -0.3 -2.921875q-0.265625 -1.2 -0.7 -2.25q-0.3125 -0.7 -1.3 -2.34375l1.015625 0q1.46875 2 2.2 3.9375q0.59375 1.7 0.6 3.5625q0 2.1 -0.8 4.09375q-0.796875 2 -2 3.4375z" fill-rule="nonzero"/>
    <path fill="#cfe2f3" d="m340.07135 264.0296l0 0c0 -4.8 3.9 -8.8 8.8 -8.771835l281.73193 0c2.326416 0 4.6 0.9 6.2 2.5692291c1.6450195 1.6 2.6 3.9 2.6 6.202606l0 35.086273c0 4.8 -3.9 8.8 -8.8 8.77182l-281.73193 0c-4.844574 0 -8.8 -3.9 -8.8 -8.77182z" fill-rule="nonzero"/>
    <path stroke="#000000" stroke-width="2.0" stroke-linejoin="round" stroke-linecap="butt" d="m340.07135 264.0296l0 0c0 -4.8 3.9 -8.8 8.8 -8.771835l281.73193 0c2.326416 0 4.6 0.9 6.2 2.5692291c1.6450195 1.6 2.6 3.9 2.6 6.202606l0 35.086273c0 4.8 -3.9 8.8 -8.8 8.77182l-281.73193 0c-4.844574 0 -8.8 -3.9 -8.8 -8.77182z" fill-rule="nonzero"/>
    <path fill="#000000" d="m437.5451 287.43274l0 -11.453125l2.28125 0l2.71875 8.109375q0.375 1.1 0.5 1.6875q0.1875 -0.6 0.6 -1.828125l2.734375 -7.96875l2.046875 0l0 11.453125l-1.46875 0l0 -9.59375l-3.328125 9.59375l-1.359375 0l-3.3125 -9.75l0 9.75l-1.46875 0zm12.671875 -4.15625q0 -2.3 1.3 -3.40625q1.078125 -0.9 2.6 -0.921875q1.71875 0 2.8 1.125q1.09375 1.1 1.1 3.09375q0 1.6 -0.5 2.515625q-0.484375 0.9 -1.4 1.4375q-0.90625 0.5 -2 0.5q-1.734375 0 -2.8 -1.109375q-1.078125 -1.1 -1.1 -3.234375zm1.453125 0q0 1.6 0.7 2.390625q0.703125 0.8 1.8 0.796875q1.046875 0 1.7 -0.796875q0.703125 -0.8 0.7 -2.4375q0 -1.5 -0.7 -2.328125q-0.6875 -0.8 -1.7 -0.796875q-1.046875 0 -1.8 0.796875q-0.6875 0.8 -0.7 2.375zm13.3515625 4.15625l0 -1.046875q-0.78125 1.2 -2.3 1.234375q-1.0 0 -1.8 -0.546875q-0.828125 -0.5 -1.3 -1.53125q-0.453125 -1 -0.5 -2.25q0 -1.2 0.4 -2.25q0.421875 -1 1.2 -1.546875q0.828125 -0.5 1.9 -0.546875q0.75 0 1.3 0.3125q0.59375 0.3 1 0.828125l0 -4.109375l1.40625 0l0 11.453125l-1.3125 0zm-4.4375 -4.140625q0 1.6 0.7 2.390625q0.671875 0.8 1.6 0.78125q0.921875 0 1.6 -0.75q0.65625 -0.8 0.7 -2.3125q0 -1.7 -0.7 -2.5q-0.65625 -0.8 -1.6 -0.796875q-0.9375 0 -1.6 0.765625q-0.625 0.8 -0.6 2.421875zm13.6328125 1.46875l1.453125 0.171875q-0.34375 1.3 -1.3 1.984375q-0.921875 0.7 -2.4 0.703125q-1.828125 0 -2.9 -1.125q-1.0625 -1.1 -1.1 -3.140625q0 -2.1 1.1 -3.25q1.078125 -1.2 2.8 -1.15625q1.65625 0 2.7 1.140625q1.0625 1.1 1.1 3.171875q0 0.1 0 0.375l-6.1875 0q0.078125 1.4 0.8 2.109375q0.703125 0.7 1.7 0.71875q0.78125 0 1.3 -0.40625q0.546875 -0.4 0.9 -1.296875zm-4.609375 -2.28125l4.625 0q-0.09375 -1 -0.5 -1.5625q-0.671875 -0.8 -1.7 -0.8125q-0.96875 0 -1.6 0.65625q-0.65625 0.6 -0.7 1.71875zm7.8046875 4.953125l0 -11.453125l1.40625 0l0 11.453125l-1.40625 0zm10.71875 3.375q-1.171875 -1.5 -2 -3.4375q-0.796875 -2 -0.8 -4.09375q0 -1.9 0.6 -3.5625q0.703125 -2 2.2 -3.9375l1.0 0q-0.9375 1.6 -1.2 2.328125q-0.46875 1.1 -0.8 2.25q-0.328125 1.5 -0.3 2.9375q0 3.8 2.3 7.515625l-1.0 0zm10.984375 -7.390625l1.515625 0.375q-0.46875 1.9 -1.7 2.859375q-1.234375 1 -3 0.984375q-1.859375 0 -3 -0.75q-1.15625 -0.8 -1.8 -2.1875q-0.609375 -1.4 -0.6 -3.078125q0 -1.8 0.7 -3.125q0.6875 -1.3 1.9 -2.015625q1.265625 -0.7 2.8 -0.703125q1.71875 0 2.9 0.875q1.171875 0.9 1.6 2.46875l-1.5 0.34375q-0.390625 -1.2 -1.2 -1.8125q-0.75 -0.6 -1.9 -0.578125q-1.3125 0 -2.2 0.640625q-0.890625 0.6 -1.2 1.703125q-0.359375 1.1 -0.4 2.1875q0 1.5 0.4 2.5625q0.4375 1.1 1.3 1.625q0.90625 0.5 2 0.53125q1.265625 0 2.1 -0.734375q0.890625 -0.7 1.2 -2.171875zm8.6171875 2.984375q-0.78125 0.7 -1.5 0.953125q-0.71875 0.3 -1.5 0.265625q-1.375 0 -2.1 -0.671875q-0.734375 -0.7 -0.7 -1.703125q0 -0.6 0.3 -1.109375q0.28125 -0.5 0.7 -0.8125q0.453125 -0.3 1 -0.46875q0.421875 -0.1 1.2 -0.203125q1.703125 -0.2 2.5 -0.484375q0 -0.3 0 -0.375q0 -0.9 -0.4 -1.203125q-0.546875 -0.5 -1.6 -0.484375q-0.984375 0 -1.5 0.359375q-0.46875 0.3 -0.7 1.21875l-1.375 -0.1875q0.1875 -0.9 0.6 -1.421875q0.4375 -0.5 1.2 -0.828125q0.8125 -0.3 1.9 -0.296875q1.0625 0 1.7 0.25q0.671875 0.2 1 0.625q0.3125 0.4 0.4 0.953125q0.078125 0.4 0.1 1.296875l0 1.875q0 2 0.1 2.484375q0.09375 0.5 0.4 1.0l-1.46875 0q-0.21875 -0.4 -0.3 -1.03125zm-0.109375 -3.140625q-0.765625 0.3 -2.3 0.53125q-0.875 0.1 -1.2 0.28125q-0.359375 0.2 -0.6 0.46875q-0.1875 0.3 -0.2 0.65625q0 0.6 0.4 0.9375q0.4375 0.4 1.2 0.375q0.8125 0 1.4 -0.34375q0.640625 -0.4 0.9 -0.984375q0.234375 -0.5 0.2 -1.40625l0 -0.515625zm3.6015625 4.171875l0 -8.296875l1.265625 0l0 1.171875q0.90625 -1.4 2.6 -1.359375q0.75 0 1.4 0.265625q0.625 0.3 0.9 0.703125q0.3125 0.4 0.4 1.046875q0.078125 0.4 0.1 1.359375l0 5.109375l-1.40625 0l0 -5.046875q0 -0.9 -0.2 -1.28125q-0.15625 -0.4 -0.6 -0.6875q-0.40625 -0.2 -1 -0.25q-0.90625 0 -1.6 0.578125q-0.640625 0.6 -0.6 2.15625l0 4.53125l-1.40625 0zm8.3046875 -3.25l1.359375 -0.1875q0.0625 1.3 0.5 1.796875q0.4375 0.5 1.2 0.484375q0.578125 0 1 -0.265625q0.421875 -0.3 0.6 -0.703125q0.15625 -0.5 0.2 -1.4375l0 -7.890625l1.515625 0l0 7.796875q0 1.4 -0.4 2.234375q-0.34375 0.8 -1.1 1.203125q-0.75 0.4 -1.8 0.421875q-1.515625 0 -2.3 -0.875q-0.796875 -0.9 -0.8 -2.578125zm8.25 -0.4375l1.4375 -0.125q0.09375 0.9 0.5 1.421875q0.375 0.5 1.2 0.890625q0.78125 0.3 1.8 0.328125q0.875 0 1.5 -0.25q0.671875 -0.3 1 -0.703125q0.328125 -0.5 0.3 -0.984375q0 -0.5 -0.3 -0.9375q-0.3125 -0.4 -1 -0.6875q-0.453125 -0.2 -2 -0.546875q-1.578125 -0.4 -2.2 -0.71875q-0.8125 -0.4 -1.2 -1.0625q-0.40625 -0.6 -0.4 -1.4375q0 -0.9 0.5 -1.609375q0.5 -0.8 1.4 -1.15625q0.953125 -0.4 2.1 -0.390625q1.28125 0 2.2 0.421875q0.96875 0.4 1.5 1.203125q0.53125 0.8 0.6 1.796875l-1.453125 0.109375q-0.125 -1.1 -0.8 -1.625q-0.671875 -0.6 -2 -0.5625q-1.375 0 -2 0.5q-0.625 0.5 -0.6 1.21875q0 0.6 0.4 1.015625q0.4375 0.4 2.3 0.8125q1.859375 0.4 2.5 0.734375q1.0 0.5 1.5 1.171875q0.484375 0.7 0.5 1.625q0 0.9 -0.5 1.71875q-0.515625 0.8 -1.5 1.265625q-0.984375 0.5 -2.2 0.453125q-1.5625 0 -2.6 -0.453125q-1.046875 -0.5 -1.7 -1.375q-0.59375 -0.9 -0.6 -2.0625zm11.9375 7.0625l-1.015625 0q2.34375 -3.8 2.3 -7.515625q0 -1.5 -0.3 -2.921875q-0.265625 -1.2 -0.7 -2.25q-0.3125 -0.7 -1.3 -2.34375l1.015625 0q1.46875 2 2.2 3.9375q0.59375 1.7 0.6 3.5625q0 2.1 -0.8 4.09375q-0.796875 2 -2 3.4375z" fill-rule="nonzero"/>
    <path fill="#cfe2f3" d="m340.07135 199.61095l0 0c0 -4.8 3.9 -8.8 8.8 -8.771835l120.97601 0c2.3264465 0 4.6 0.9 6.2 2.5692139c1.64505 1.6 2.6 3.9 2.6 6.2026215l0 35.086258c0 4.8 -3.9 8.8 -8.8 8.771835l-120.97601 0l0 0c-4.844574 0 -8.8 -3.9 -8.8 -8.771835z" fill-rule="nonzero"/>
    <path stroke="#000000" stroke-width="2.0" stroke-linejoin="round" stroke-linecap="butt" d="m340.07135 199.61095l0 0c0 -4.8 3.9 -8.8 8.8 -8.771835l120.97601 0c2.3264465 0 4.6 0.9 6.2 2.5692139c1.64505 1.6 2.6 3.9 2.6 6.2026215l0 35.086258c0 4.8 -3.9 8.8 -8.8 8.771835l-120.97601 0l0 0c-4.844574 0 -8.8 -3.9 -8.8 -8.771835z" fill-rule="nonzero"/>
    <path fill="#000000" d="m388.9484 209.49844l1.515625 0.375q-0.46875 1.9 -1.7 2.859375q-1.234375 1 -3 0.984375q-1.859375 0 -3 -0.75q-1.15625 -0.8 -1.8 -2.1875q-0.609375 -1.4 -0.6 -3.078125q0 -1.8 0.7 -3.125q0.6875 -1.3 1.9 -2.015625q1.265625 -0.7 2.8 -0.703125q1.71875 0 2.9 0.875q1.171875 0.9 1.6 2.46875l-1.5 0.34375q-0.390625 -1.2 -1.2 -1.8125q-0.75 -0.6 -1.9 -0.578125q-1.3125 0 -2.2 0.640625q-0.890625 0.6 -1.2 1.703125q-0.359375 1.1 -0.4 2.1875q0 1.5 0.4 2.5625q0.4375 1.1 1.3 1.625q0.90625 0.5 2 0.53125q1.265625 0 2.1 -0.734375q0.890625 -0.7 1.2 -2.171875zm2.6796875 -0.140625q0 -2.3 1.3 -3.40625q1.078125 -0.9 2.6 -0.921875q1.71875 0 2.8 1.125q1.09375 1.1 1.1 3.09375q0 1.6 -0.5 2.515625q-0.484375 0.9 -1.4 1.4375q-0.90625 0.5 -2 0.5q-1.734375 0 -2.8 -1.109375q-1.078125 -1.1 -1.1 -3.234375zm1.453125 0q0 1.6 0.7 2.390625q0.703125 0.8 1.8 0.796875q1.046875 0 1.7 -0.796875q0.703125 -0.8 0.7 -2.4375q0 -1.5 -0.7 -2.328125q-0.6875 -0.8 -1.7 -0.796875q-1.046875 0 -1.8 0.796875q-0.6875 0.8 -0.7 2.375zm7.9765625 4.15625l0 -8.296875l1.265625 0l0 1.171875q0.90625 -1.4 2.6 -1.359375q0.75 0 1.4 0.265625q0.625 0.3 0.9 0.703125q0.3125 0.4 0.4 1.046875q0.078125 0.4 0.1 1.359375l0 5.109375l-1.40625 0l0 -5.046875q0 -0.9 -0.2 -1.28125q-0.15625 -0.4 -0.6 -0.6875q-0.40625 -0.2 -1 -0.25q-0.90625 0 -1.6 0.578125q-0.640625 0.6 -0.6 2.15625l0 4.53125l-1.40625 0zm11.9609375 -1.265625l0.203125 1.25q-0.59375 0.1 -1.1 0.125q-0.765625 0 -1.2 -0.234375q-0.421875 -0.2 -0.6 -0.640625q-0.171875 -0.4 -0.2 -1.671875l0 -4.765625l-1.03125 0l0 -1.09375l1.03125 0l0 -2.0625l1.40625 -0.84375l0 2.90625l1.40625 0l0 1.09375l-1.40625 0l0 4.84375q0 0.6 0.1 0.78125q0.078125 0.2 0.2 0.28125q0.171875 0.1 0.5 0.09375q0.234375 0 0.6 -0.0625zm1.3671875 1.265625l0 -8.296875l1.265625 0l0 1.25q0.484375 -0.9 0.9 -1.15625q0.40625 -0.3 0.9 -0.28125q0.703125 0 1.4 0.453125l-0.484375 1.296875q-0.515625 -0.3 -1 -0.296875q-0.453125 0 -0.8 0.28125q-0.359375 0.3 -0.5 0.765625q-0.234375 0.8 -0.2 1.640625l0 4.34375l-1.40625 0zm4.8125 -4.15625q0 -2.3 1.3 -3.40625q1.078125 -0.9 2.6 -0.921875q1.71875 0 2.8 1.125q1.09375 1.1 1.1 3.09375q0 1.6 -0.5 2.515625q-0.484375 0.9 -1.4 1.4375q-0.90625 0.5 -2 0.5q-1.734375 0 -2.8 -1.109375q-1.078125 -1.1 -1.1 -3.234375zm1.453125 0q0 1.6 0.7 2.390625q0.703125 0.8 1.8 0.796875q1.046875 0 1.7 -0.796875q0.703125 -0.8 0.7 -2.4375q0 -1.5 -0.7 -2.328125q-0.6875 -0.8 -1.7 -0.796875q-1.046875 0 -1.8 0.796875q-0.6875 0.8 -0.7 2.375zm7.9453125 4.15625l0 -11.453125l1.40625 0l0 11.453125l-1.40625 0zm3.0234375 -2.484375l1.390625 -0.21875q0.109375 0.8 0.6 1.296875q0.546875 0.4 1.5 0.4375q0.96875 0 1.4 -0.390625q0.46875 -0.4 0.5 -0.9375q0 -0.5 -0.4 -0.75q-0.296875 -0.2 -1.4 -0.46875q-1.546875 -0.4 -2.2 -0.671875q-0.59375 -0.3 -0.9 -0.796875q-0.296875 -0.5 -0.3 -1.109375q0 -0.6 0.2 -1.03125q0.25 -0.5 0.7 -0.78125q0.328125 -0.2 0.9 -0.40625q0.578125 -0.2 1.2 -0.171875q0.984375 0 1.7 0.28125q0.734375 0.3 1.1 0.765625q0.359375 0.5 0.5 1.28125l-1.375 0.1875q-0.09375 -0.6 -0.5 -1.0q-0.453125 -0.4 -1.3 -0.359375q-0.96875 0 -1.4 0.328125q-0.40625 0.3 -0.4 0.734375q0 0.3 0.2 0.5q0.171875 0.2 0.5 0.375q0.21875 0.1 1.2 0.359375q1.484375 0.4 2.1 0.65625q0.59375 0.2 0.9 0.734375q0.34375 0.5 0.3 1.203125q0 0.7 -0.4 1.328125q-0.40625 0.6 -1.2 0.953125q-0.765625 0.3 -1.7 0.34375q-1.625 0 -2.5 -0.671875q-0.84375 -0.7 -1.1 -2.0z" fill-rule="nonzero"/>
    <path fill="#000000" d="m383.74136 235.88907q-1.171875 -1.5 -2 -3.4375q-0.796875 -2 -0.8 -4.09375q0 -1.9 0.6 -3.5625q0.703125 -2 2.2 -3.9375l1.0 0q-0.9375 1.6 -1.2 2.328125q-0.46875 1.1 -0.8 2.25q-0.328125 1.5 -0.3 2.9375q0 3.8 2.3 7.515625l-1.0 0zm10.984375 -7.390625l1.515625 0.375q-0.46875 1.9 -1.7 2.859375q-1.234375 1 -3 0.984375q-1.859375 0 -3 -0.75q-1.15625 -0.8 -1.8 -2.1875q-0.609375 -1.4 -0.6 -3.078125q0 -1.8 0.7 -3.125q0.6875 -1.3 1.9 -2.015625q1.265625 -0.7 2.8 -0.703125q1.71875 0 2.9 0.875q1.171875 0.9 1.6 2.46875l-1.5 0.34375q-0.390625 -1.2 -1.2 -1.8125q-0.75 -0.6 -1.9 -0.578125q-1.3125 0 -2.2 0.640625q-0.890625 0.6 -1.2 1.703125q-0.359375 1.1 -0.4 2.1875q0 1.5 0.4 2.5625q0.4375 1.1 1.3 1.625q0.90625 0.5 2 0.53125q1.265625 0 2.1 -0.734375q0.890625 -0.7 1.2 -2.171875zm8.6171875 2.984375q-0.78125 0.7 -1.5 0.953125q-0.71875 0.3 -1.5 0.265625q-1.375 0 -2.1 -0.671875q-0.734375 -0.7 -0.7 -1.703125q0 -0.6 0.3 -1.109375q0.28125 -0.5 0.7 -0.8125q0.453125 -0.3 1 -0.46875q0.421875 -0.1 1.2 -0.203125q1.703125 -0.2 2.5 -0.484375q0 -0.3 0 -0.375q0 -0.9 -0.4 -1.203125q-0.546875 -0.5 -1.6 -0.484375q-0.984375 0 -1.5 0.359375q-0.46875 0.3 -0.7 1.21875l-1.375 -0.1875q0.1875 -0.9 0.6 -1.421875q0.4375 -0.5 1.2 -0.828125q0.8125 -0.3 1.9 -0.296875q1.0625 0 1.7 0.25q0.671875 0.2 1 0.625q0.3125 0.4 0.4 0.953125q0.078125 0.4 0.1 1.296875l0 1.875q0 2 0.1 2.484375q0.09375 0.5 0.4 1.0l-1.46875 0q-0.21875 -0.4 -0.3 -1.03125zm-0.109375 -3.140625q-0.765625 0.3 -2.3 0.53125q-0.875 0.1 -1.2 0.28125q-0.359375 0.2 -0.6 0.46875q-0.1875 0.3 -0.2 0.65625q0 0.6 0.4 0.9375q0.4375 0.4 1.2 0.375q0.8125 0 1.4 -0.34375q0.640625 -0.4 0.9 -0.984375q0.234375 -0.5 0.2 -1.40625l0 -0.515625zm3.6015625 4.171875l0 -8.296875l1.265625 0l0 1.171875q0.90625 -1.4 2.6 -1.359375q0.75 0 1.4 0.265625q0.625 0.3 0.9 0.703125q0.3125 0.4 0.4 1.046875q0.078125 0.4 0.1 1.359375l0 5.109375l-1.40625 0l0 -5.046875q0 -0.9 -0.2 -1.28125q-0.15625 -0.4 -0.6 -0.6875q-0.40625 -0.2 -1 -0.25q-0.90625 0 -1.6 0.578125q-0.640625 0.6 -0.6 2.15625l0 4.53125l-1.40625 0zm8.3046875 -3.25l1.359375 -0.1875q0.0625 1.3 0.5 1.796875q0.4375 0.5 1.2 0.484375q0.578125 0 1 -0.265625q0.421875 -0.3 0.6 -0.703125q0.15625 -0.5 0.2 -1.4375l0 -7.890625l1.515625 0l0 7.796875q0 1.4 -0.4 2.234375q-0.34375 0.8 -1.1 1.203125q-0.75 0.4 -1.8 0.421875q-1.515625 0 -2.3 -0.875q-0.796875 -0.9 -0.8 -2.578125zm8.25 -0.4375l1.4375 -0.125q0.09375 0.9 0.5 1.421875q0.375 0.5 1.2 0.890625q0.78125 0.3 1.8 0.328125q0.875 0 1.5 -0.25q0.671875 -0.3 1 -0.703125q0.328125 -0.5 0.3 -0.984375q0 -0.5 -0.3 -0.9375q-0.3125 -0.4 -1 -0.6875q-0.453125 -0.2 -2 -0.546875q-1.578125 -0.4 -2.2 -0.71875q-0.8125 -0.4 -1.2 -1.0625q-0.40625 -0.6 -0.4 -1.4375q0 -0.9 0.5 -1.609375q0.5 -0.8 1.4 -1.15625q0.953125 -0.4 2.1 -0.390625q1.28125 0 2.2 0.421875q0.96875 0.4 1.5 1.203125q0.53125 0.8 0.6 1.796875l-1.453125 0.109375q-0.125 -1.1 -0.8 -1.625q-0.671875 -0.6 -2 -0.5625q-1.375 0 -2 0.5q-0.625 0.5 -0.6 1.21875q0 0.6 0.4 1.015625q0.4375 0.4 2.3 0.8125q1.859375 0.4 2.5 0.734375q1.0 0.5 1.5 1.171875q0.484375 0.7 0.5 1.625q0 0.9 -0.5 1.71875q-0.515625 0.8 -1.5 1.265625q-0.984375 0.5 -2.2 0.453125q-1.5625 0 -2.6 -0.453125q-1.046875 -0.5 -1.7 -1.375q-0.59375 -0.9 -0.6 -2.0625zm11.9375 7.0625l-1.015625 0q2.34375 -3.8 2.3 -7.515625q0 -1.5 -0.3 -2.921875q-0.265625 -1.2 -0.7 -2.25q-0.3125 -0.7 -1.3 -2.34375l1.015625 0q1.46875 2 2.2 3.9375q0.59375 1.7 0.6 3.5625q0 2.1 -0.8 4.09375q-0.796875 2 -2 3.4375z" fill-rule="nonzero"/>
    <path fill="#000000" fill-opacity="0.0" d="m731.9772 188.19228l65.57483 0l0 34.67717l-65.57483 0z" fill-rule="nonzero"/>
    <path fill="#000000" d="m750.3834 208.53665l1.515625 0.375q-0.46875 1.9 -1.7 2.859375q-1.234375 1 -3 0.984375q-1.859375 0 -3 -0.75q-1.15625 -0.8 -1.8 -2.1875q-0.609375 -1.4 -0.6 -3.078125q0 -1.8 0.7 -3.125q0.6875 -1.3 1.9 -2.015625q1.265625 -0.7 2.8 -0.703125q1.71875 0 2.9 0.875q1.171875 0.9 1.6 2.46875l-1.5 0.34375q-0.390625 -1.2 -1.2 -1.8125q-0.75 -0.6 -1.9 -0.578125q-1.3125 0 -2.2 0.640625q-0.890625 0.6 -1.2 1.703125q-0.359375 1.1 -0.4 2.1875q0 1.5 0.4 2.5625q0.4375 1.1 1.3 1.625q0.90625 0.5 2 0.53125q1.265625 0 2.1 -0.734375q0.890625 -0.7 1.2 -2.171875zm3.1796875 4.015625l0 -11.453125l1.40625 0l0 11.453125l-1.40625 0zm3.5859375 -9.84375l0 -1.609375l1.40625 0l0 1.609375l-1.40625 0zm0 9.84375l0 -8.296875l1.40625 0l0 8.296875l-1.40625 0zm9.2265625 -2.671875l1.453125 0.171875q-0.34375 1.3 -1.3 1.984375q-0.921875 0.7 -2.4 0.703125q-1.828125 0 -2.9 -1.125q-1.0625 -1.1 -1.1 -3.140625q0 -2.1 1.1 -3.25q1.078125 -1.2 2.8 -1.15625q1.65625 0 2.7 1.140625q1.0625 1.1 1.1 3.171875q0 0.1 0 0.375l-6.1875 0q0.078125 1.4 0.8 2.109375q0.703125 0.7 1.7 0.71875q0.78125 0 1.3 -0.40625q0.546875 -0.4 0.9 -1.296875zm-4.609375 -2.28125l4.625 0q-0.09375 -1 -0.5 -1.5625q-0.671875 -0.8 -1.7 -0.8125q-0.96875 0 -1.6 0.65625q-0.65625 0.6 -0.7 1.71875zm7.8359375 4.953125l0 -8.296875l1.265625 0l0 1.171875q0.90625 -1.4 2.6 -1.359375q0.75 0 1.4 0.265625q0.625 0.3 0.9 0.703125q0.3125 0.4 0.4 1.046875q0.078125 0.4 0.1 1.359375l0 5.109375l-1.40625 0l0 -5.046875q0 -0.9 -0.2 -1.28125q-0.15625 -0.4 -0.6 -0.6875q-0.40625 -0.2 -1 -0.25q-0.90625 0 -1.6 0.578125q-0.640625 0.6 -0.6 2.15625l0 4.53125l-1.40625 0zm11.9609375 -1.265625l0.203125 1.25q-0.59375 0.1 -1.1 0.125q-0.765625 0 -1.2 -0.234375q-0.421875 -0.2 -0.6 -0.640625q-0.171875 -0.4 -0.2 -1.671875l0 -4.765625l-1.03125 0l0 -1.09375l1.03125 0l0 -2.0625l1.40625 -0.84375l0 2.90625l1.40625 0l0 1.09375l-1.40625 0l0 4.84375q0 0.6 0.1 0.78125q0.078125 0.2 0.2 0.28125q0.171875 0.1 0.5 0.09375q0.234375 0 0.6 -0.0625z" fill-rule="nonzero"/>
    <path fill="#000000" fill-opacity="0.0" d="m731.9772 516.23785l76.50397 0l0 34.677185l-76.50397 0z" fill-rule="nonzero"/>
    <path fill="#000000" d="m741.6959 536.91034l1.4375 -0.125q0.09375 0.9 0.5 1.421875q0.375 0.5 1.2 0.890625q0.78125 0.3 1.8 0.328125q0.875 0 1.5 -0.25q0.671875 -0.3 1 -0.703125q0.328125 -0.5 0.3 -0.984375q0 -0.5 -0.3 -0.9375q-0.3125 -0.4 -1 -0.6875q-0.453125 -0.2 -2 -0.546875q-1.578125 -0.4 -2.2 -0.71875q-0.8125 -0.4 -1.2 -1.0625q-0.40625 -0.6 -0.4 -1.4375q0 -0.9 0.5 -1.609375q0.5 -0.8 1.4 -1.15625q0.953125 -0.4 2.1 -0.390625q1.28125 0 2.2 0.421875q0.96875 0.4 1.5 1.203125q0.53125 0.8 0.6 1.796875l-1.453125 0.109375q-0.125 -1.1 -0.8 -1.625q-0.671875 -0.6 -2 -0.5625q-1.375 0 -2 0.5q-0.625 0.5 -0.6 1.21875q0 0.6 0.4 1.015625q0.4375 0.4 2.3 0.8125q1.859375 0.4 2.5 0.734375q1.0 0.5 1.5 1.171875q0.484375 0.7 0.5 1.625q0 0.9 -0.5 1.71875q-0.515625 0.8 -1.5 1.265625q-0.984375 0.5 -2.2 0.453125q-1.5625 0 -2.6 -0.453125q-1.046875 -0.5 -1.7 -1.375q-0.59375 -0.9 -0.6 -2.0625zm16.6875 1.015625l1.453125 0.171875q-0.34375 1.3 -1.3 1.984375q-0.921875 0.7 -2.4 0.703125q-1.828125 0 -2.9 -1.125q-1.0625 -1.1 -1.1 -3.140625q0 -2.1 1.1 -3.25q1.078125 -1.2 2.8 -1.15625q1.65625 0 2.7 1.140625q1.0625 1.1 1.1 3.171875q0 0.1 0 0.375l-6.1875 0q0.078125 1.4 0.8 2.109375q0.703125 0.7 1.7 0.71875q0.78125 0 1.3 -0.40625q0.546875 -0.4 0.9 -1.296875zm-4.609375 -2.28125l4.625 0q-0.09375 -1 -0.5 -1.5625q-0.671875 -0.8 -1.7 -0.8125q-0.96875 0 -1.6 0.65625q-0.65625 0.6 -0.7 1.71875zm7.8203125 4.953125l0 -8.296875l1.265625 0l0 1.25q0.484375 -0.9 0.9 -1.15625q0.40625 -0.3 0.9 -0.28125q0.703125 0 1.4 0.453125l-0.484375 1.296875q-0.515625 -0.3 -1 -0.296875q-0.453125 0 -0.8 0.28125q-0.359375 0.3 -0.5 0.765625q-0.234375 0.8 -0.2 1.640625l0 4.34375l-1.40625 0zm7.640625 0l-3.15625 -8.296875l1.484375 0l1.78125 4.96875q0.296875 0.8 0.5 1.671875q0.1875 -0.7 0.5 -1.578125l1.84375 -5.0625l1.4375 0l-3.140625 8.296875l-1.3125 0zm11.375 -2.671875l1.453125 0.171875q-0.34375 1.3 -1.3 1.984375q-0.921875 0.7 -2.4 0.703125q-1.828125 0 -2.9 -1.125q-1.0625 -1.1 -1.1 -3.140625q0 -2.1 1.1 -3.25q1.078125 -1.2 2.8 -1.15625q1.65625 0 2.7 1.140625q1.0625 1.1 1.1 3.171875q0 0.1 0 0.375l-6.1875 0q0.078125 1.4 0.8 2.109375q0.703125 0.7 1.7 0.71875q0.78125 0 1.3 -0.40625q0.546875 -0.4 0.9 -1.296875zm-4.609375 -2.28125l4.625 0q-0.09375 -1 -0.5 -1.5625q-0.671875 -0.8 -1.7 -0.8125q-0.96875 0 -1.6 0.65625q-0.65625 0.6 -0.7 1.71875zm7.8203125 4.953125l0 -8.296875l1.265625 0l0 1.25q0.484375 -0.9 0.9 -1.15625q0.40625 -0.3 0.9 -0.28125q0.703125 0 1.4 0.453125l-0.484375 1.296875q-0.515625 -0.3 -1 -0.296875q-0.453125 0 -0.8 0.28125q-0.359375 0.3 -0.5 0.765625q-0.234375 0.8 -0.2 1.640625l0 4.34375l-1.40625 0z" fill-rule="nonzero"/>
    <path fill="#cfe2f3" d="m478.6206 348.52975l17.338593 -17.338593l17.338593 17.338593l-8.669312 0l0 52.0l8.669312 0l-17.338593 17.338593l-17.338593 -17.338593l8.669312 0l0 -52.0z" fill-rule="nonzero"/>
    <path stroke="#000000" stroke-width="2.0" stroke-linejoin="round" stroke-linecap="butt" d="m478.6206 348.52975l17.338593 -17.338593l17.338593 17.338593l-8.669312 0l0 52.0l8.669312 0l-17.338593 17.338593l-17.338593 -17.338593l8.669312 0l0 -52.0z" fill-rule="nonzero"/>
    <path fill="#000000" fill-opacity="0.0" d="m521.4546 357.19632l163.4646 0l0 34.677155l-163.4646 0z" fill-rule="nonzero"/>
    <path fill="#000000" d="m530.92334 378.3063l1.359375 -0.1875q0.0625 1.3 0.5 1.796875q0.4375 0.5 1.2 0.484375q0.578125 0 1 -0.265625q0.421875 -0.3 0.6 -0.703125q0.15625 -0.5 0.2 -1.4375l0 -7.890625l1.515625 0l0 7.796875q0 1.4 -0.4 2.234375q-0.34375 0.8 -1.1 1.203125q-0.75 0.4 -1.8 0.421875q-1.515625 0 -2.3 -0.875q-0.796875 -0.9 -0.8 -2.578125zm8.25 -0.4375l1.4375 -0.125q0.09375 0.9 0.5 1.421875q0.375 0.5 1.2 0.890625q0.78125 0.3 1.8 0.328125q0.875 0 1.5 -0.25q0.671875 -0.3 1 -0.703125q0.328125 -0.5 0.3 -0.984375q0 -0.5 -0.3 -0.9375q-0.3125 -0.4 -1 -0.6875q-0.453125 -0.2 -2 -0.546875q-1.578125 -0.4 -2.2 -0.71875q-0.8125 -0.4 -1.2 -1.0625q-0.40625 -0.6 -0.4 -1.4375q0 -0.9 0.5 -1.609375q0.5 -0.8 1.4 -1.15625q0.953125 -0.4 2.1 -0.390625q1.28125 0 2.2 0.421875q0.96875 0.4 1.5 1.203125q0.53125 0.8 0.6 1.796875l-1.453125 0.109375q-0.125 -1.1 -0.8 -1.625q-0.671875 -0.6 -2 -0.5625q-1.375 0 -2 0.5q-0.625 0.5 -0.6 1.21875q0 0.6 0.4 1.015625q0.4375 0.4 2.3 0.8125q1.859375 0.4 2.5 0.734375q1.0 0.5 1.5 1.171875q0.484375 0.7 0.5 1.625q0 0.9 -0.5 1.71875q-0.515625 0.8 -1.5 1.265625q-0.984375 0.5 -2.2 0.453125q-1.5625 0 -2.6 -0.453125q-1.046875 -0.5 -1.7 -1.375q-0.59375 -0.9 -0.6 -2.0625zm10.734375 -1.890625q0 -2.9 1.5 -4.46875q1.53125 -1.6 4 -1.609375q1.578125 0 2.8 0.765625q1.28125 0.8 2 2.109375q0.671875 1.3 0.7 3.0625q0 1.8 -0.7 3.125q-0.703125 1.4 -2 2.09375q-1.28125 0.7 -2.8 0.703125q-1.609375 0 -2.9 -0.78125q-1.265625 -0.8 -1.9 -2.140625q-0.65625 -1.4 -0.7 -2.859375zm1.5625 0.015625q0 2.1 1.1 3.265625q1.109375 1.2 2.8 1.1875q1.703125 0 2.8 -1.203125q1.109375 -1.2 1.1 -3.40625q0 -1.4 -0.5 -2.4375q-0.46875 -1 -1.4 -1.625q-0.90625 -0.6 -2 -0.578125q-1.609375 0 -2.8 1.109375q-1.15625 1.1 -1.2 3.6875zm11.3203125 5.5625l0 -11.453125l1.5625 0l6.015625 8.984375l0 -8.984375l1.453125 0l0 11.453125l-1.5625 0l-6.015625 -9.0l0 9.0l-1.453125 0zm15.5625 -5.578125q0 -2.9 1.5 -4.46875q1.53125 -1.6 4 -1.609375q1.578125 0 2.8 0.765625q1.28125 0.8 2 2.109375q0.671875 1.3 0.7 3.0625q0 1.8 -0.7 3.125q-0.703125 1.4 -2 2.09375q-1.28125 0.7 -2.8 0.703125q-1.609375 0 -2.9 -0.78125q-1.265625 -0.8 -1.9 -2.140625q-0.65625 -1.4 -0.7 -2.859375zm1.5625 0.015625q0 2.1 1.1 3.265625q1.109375 1.2 2.8 1.1875q1.703125 0 2.8 -1.203125q1.109375 -1.2 1.1 -3.40625q0 -1.4 -0.5 -2.4375q-0.46875 -1 -1.4 -1.625q-0.90625 -0.6 -2 -0.578125q-1.609375 0 -2.8 1.109375q-1.15625 1.1 -1.2 3.6875zm13.4609375 5.5625l-3.15625 -8.296875l1.484375 0l1.78125 4.96875q0.296875 0.8 0.5 1.671875q0.1875 -0.7 0.5 -1.578125l1.84375 -5.0625l1.4375 0l-3.140625 8.296875l-1.3125 0zm11.375 -2.671875l1.453125 0.171875q-0.34375 1.3 -1.3 1.984375q-0.921875 0.7 -2.4 0.703125q-1.828125 0 -2.9 -1.125q-1.0625 -1.1 -1.1 -3.140625q0 -2.1 1.1 -3.25q1.078125 -1.2 2.8 -1.15625q1.65625 0 2.7 1.140625q1.0625 1.1 1.1 3.171875q0 0.1 0 0.375l-6.1875 0q0.078125 1.4 0.8 2.109375q0.703125 0.7 1.7 0.71875q0.78125 0 1.3 -0.40625q0.546875 -0.4 0.9 -1.296875zm-4.609375 -2.28125l4.625 0q-0.09375 -1 -0.5 -1.5625q-0.671875 -0.8 -1.7 -0.8125q-0.96875 0 -1.6 0.65625q-0.65625 0.6 -0.7 1.71875zm7.8203125 4.953125l0 -8.296875l1.265625 0l0 1.25q0.484375 -0.9 0.9 -1.15625q0.40625 -0.3 0.9 -0.28125q0.703125 0 1.4 0.453125l-0.484375 1.296875q-0.515625 -0.3 -1 -0.296875q-0.453125 0 -0.8 0.28125q-0.359375 0.3 -0.5 0.765625q-0.234375 0.8 -0.2 1.640625l0 4.34375l-1.40625 0zm10.0078125 0l0 -11.453125l1.515625 0l0 4.703125l5.953125 0l0 -4.703125l1.515625 0l0 11.453125l-1.515625 0l0 -5.40625l-5.953125 0l0 5.40625l-1.515625 0zm14.4296875 0l0 -10.109375l-3.78125 0l0 -1.34375l9.078125 0l0 1.34375l-3.78125 0l0 10.109375l-1.515625 0zm9.7734375 0l0 -10.109375l-3.78125 0l0 -1.34375l9.078125 0l0 1.34375l-3.78125 0l0 10.109375l-1.515625 0zm6.8515625 0l0 -11.453125l4.328125 0q1.140625 0 1.7 0.109375q0.84375 0.1 1.4 0.53125q0.578125 0.4 0.9 1.109375q0.359375 0.7 0.4 1.5625q0 1.5 -0.9 2.46875q-0.921875 1 -3.4 1.015625l-2.9375 0l0 4.65625l-1.515625 0zm1.515625 -6.015625l2.96875 0q1.46875 0 2.1 -0.546875q0.625 -0.5 0.6 -1.53125q0 -0.7 -0.4 -1.234375q-0.359375 -0.5 -1 -0.671875q-0.375 -0.1 -1.4 -0.109375l-2.9375 0l0 4.09375z" fill-rule="nonzero"/>
    <path fill="#cfe2f3" d="m340.07135 135.19214l0 0c0 -4.8 3.9 -8.8 8.8 -8.771835l281.73193 0c2.326416 0 4.6 0.9 6.2 2.5692139c1.6450195 1.6 2.6 3.9 2.6 6.2026215l0 35.086258c0 4.8 -3.9 8.8 -8.8 8.771835l-281.73193 0c-4.844574 0 -8.8 -3.9 -8.8 -8.771835z" fill-rule="nonzero"/>
    <path stroke="#000000" stroke-width="2.0" stroke-linejoin="round" stroke-linecap="butt" d="m340.07135 135.19214l0 0c0 -4.8 3.9 -8.8 8.8 -8.771835l281.73193 0c2.326416 0 4.6 0.9 6.2 2.5692139c1.6450195 1.6 2.6 3.9 2.6 6.2026215l0 35.086258c0 4.8 -3.9 8.8 -8.8 8.771835l-281.73193 0c-4.844574 0 -8.8 -3.9 -8.8 -8.771835z" fill-rule="nonzero"/>
    <path fill="#000000" d="m441.32245 158.59526l-4.4375 -11.453125l1.640625 0l2.96875 8.3125q0.359375 1 0.6 1.875q0.265625 -0.9 0.6 -1.875l3.09375 -8.3125l1.546875 0l-4.484375 11.453125l-1.546875 0zm7.21875 -9.84375l0 -1.609375l1.40625 0l0 1.609375l-1.40625 0zm0 9.84375l0 -8.296875l1.40625 0l0 8.296875l-1.40625 0zm9.2265625 -2.671875l1.453125 0.171875q-0.34375 1.3 -1.3 1.984375q-0.921875 0.7 -2.4 0.703125q-1.828125 0 -2.9 -1.125q-1.0625 -1.1 -1.1 -3.140625q0 -2.1 1.1 -3.25q1.078125 -1.2 2.8 -1.15625q1.65625 0 2.7 1.140625q1.0625 1.1 1.1 3.171875q0 0.1 0 0.375l-6.1875 0q0.078125 1.4 0.8 2.109375q0.703125 0.7 1.7 0.71875q0.78125 0 1.3 -0.40625q0.546875 -0.4 0.9 -1.296875zm-4.609375 -2.28125l4.625 0q-0.09375 -1 -0.5 -1.5625q-0.671875 -0.8 -1.7 -0.8125q-0.96875 0 -1.6 0.65625q-0.65625 0.6 -0.7 1.71875zm9.3671875 4.953125l-2.546875 -8.296875l1.453125 0l1.328125 4.78125l0.484375 1.78125q0.03125 -0.1 0.4 -1.703125l1.3125 -4.859375l1.453125 0l1.234375 4.8125l0.421875 1.578125l0.46875 -1.59375l1.421875 -4.796875l1.375 0l-2.59375 8.296875l-1.46875 0l-1.3125 -4.96875l-0.328125 -1.421875l-1.671875 6.390625l-1.46875 0zm9.4609375 -2.484375l1.390625 -0.21875q0.109375 0.8 0.6 1.296875q0.546875 0.4 1.5 0.4375q0.96875 0 1.4 -0.390625q0.46875 -0.4 0.5 -0.9375q0 -0.5 -0.4 -0.75q-0.296875 -0.2 -1.4 -0.46875q-1.546875 -0.4 -2.2 -0.671875q-0.59375 -0.3 -0.9 -0.796875q-0.296875 -0.5 -0.3 -1.109375q0 -0.6 0.2 -1.03125q0.25 -0.5 0.7 -0.78125q0.328125 -0.2 0.9 -0.40625q0.578125 -0.2 1.2 -0.171875q0.984375 0 1.7 0.28125q0.734375 0.3 1.1 0.765625q0.359375 0.5 0.5 1.28125l-1.375 0.1875q-0.09375 -0.6 -0.5 -1.0q-0.453125 -0.4 -1.3 -0.359375q-0.96875 0 -1.4 0.328125q-0.40625 0.3 -0.4 0.734375q0 0.3 0.2 0.5q0.171875 0.2 0.5 0.375q0.21875 0.1 1.2 0.359375q1.484375 0.4 2.1 0.65625q0.59375 0.2 0.9 0.734375q0.34375 0.5 0.3 1.203125q0 0.7 -0.4 1.328125q-0.40625 0.6 -1.2 0.953125q-0.765625 0.3 -1.7 0.34375q-1.625 0 -2.5 -0.671875q-0.84375 -0.7 -1.1 -2.0zm15.6953125 5.859375q-1.171875 -1.5 -2 -3.4375q-0.796875 -2 -0.8 -4.09375q0 -1.9 0.6 -3.5625q0.703125 -2 2.2 -3.9375l1.0 0q-0.9375 1.6 -1.2 2.328125q-0.46875 1.1 -0.8 2.25q-0.328125 1.5 -0.3 2.9375q0 3.8 2.3 7.515625l-1.0 0zm10.984375 -7.390625l1.515625 0.375q-0.46875 1.9 -1.7 2.859375q-1.234375 1 -3 0.984375q-1.859375 0 -3 -0.75q-1.15625 -0.8 -1.8 -2.1875q-0.609375 -1.4 -0.6 -3.078125q0 -1.8 0.7 -3.125q0.6875 -1.3 1.9 -2.015625q1.265625 -0.7 2.8 -0.703125q1.71875 0 2.9 0.875q1.171875 0.9 1.6 2.46875l-1.5 0.34375q-0.390625 -1.2 -1.2 -1.8125q-0.75 -0.6 -1.9 -0.578125q-1.3125 0 -2.2 0.640625q-0.890625 0.6 -1.2 1.703125q-0.359375 1.1 -0.4 2.1875q0 1.5 0.4 2.5625q0.4375 1.1 1.3 1.625q0.90625 0.5 2 0.53125q1.265625 0 2.1 -0.734375q0.890625 -0.7 1.2 -2.171875zm8.6171875 2.984375q-0.78125 0.7 -1.5 0.953125q-0.71875 0.3 -1.5 0.265625q-1.375 0 -2.1 -0.671875q-0.734375 -0.7 -0.7 -1.703125q0 -0.6 0.3 -1.109375q0.28125 -0.5 0.7 -0.8125q0.453125 -0.3 1 -0.46875q0.421875 -0.1 1.2 -0.203125q1.703125 -0.2 2.5 -0.484375q0 -0.3 0 -0.375q0 -0.9 -0.4 -1.203125q-0.546875 -0.5 -1.6 -0.484375q-0.984375 0 -1.5 0.359375q-0.46875 0.3 -0.7 1.21875l-1.375 -0.1875q0.1875 -0.9 0.6 -1.421875q0.4375 -0.5 1.2 -0.828125q0.8125 -0.3 1.9 -0.296875q1.0625 0 1.7 0.25q0.671875 0.2 1 0.625q0.3125 0.4 0.4 0.953125q0.078125 0.4 0.1 1.296875l0 1.875q0 2 0.1 2.484375q0.09375 0.5 0.4 1.0l-1.46875 0q-0.21875 -0.4 -0.3 -1.03125zm-0.109375 -3.140625q-0.765625 0.3 -2.3 0.53125q-0.875 0.1 -1.2 0.28125q-0.359375 0.2 -0.6 0.46875q-0.1875 0.3 -0.2 0.65625q0 0.6 0.4 0.9375q0.4375 0.4 1.2 0.375q0.8125 0 1.4 -0.34375q0.640625 -0.4 0.9 -0.984375q0.234375 -0.5 0.2 -1.40625l0 -0.515625zm3.6015625 4.171875l0 -8.296875l1.265625 0l0 1.171875q0.90625 -1.4 2.6 -1.359375q0.75 0 1.4 0.265625q0.625 0.3 0.9 0.703125q0.3125 0.4 0.4 1.046875q0.078125 0.4 0.1 1.359375l0 5.109375l-1.40625 0l0 -5.046875q0 -0.9 -0.2 -1.28125q-0.15625 -0.4 -0.6 -0.6875q-0.40625 -0.2 -1 -0.25q-0.90625 0 -1.6 0.578125q-0.640625 0.6 -0.6 2.15625l0 4.53125l-1.40625 0zm8.3046875 -3.25l1.359375 -0.1875q0.0625 1.3 0.5 1.796875q0.4375 0.5 1.2 0.484375q0.578125 0 1 -0.265625q0.421875 -0.3 0.6 -0.703125q0.15625 -0.5 0.2 -1.4375l0 -7.890625l1.515625 0l0 7.796875q0 1.4 -0.4 2.234375q-0.34375 0.8 -1.1 1.203125q-0.75 0.4 -1.8 0.421875q-1.515625 0 -2.3 -0.875q-0.796875 -0.9 -0.8 -2.578125zm8.25 -0.4375l1.4375 -0.125q0.09375 0.9 0.5 1.421875q0.375 0.5 1.2 0.890625q0.78125 0.3 1.8 0.328125q0.875 0 1.5 -0.25q0.671875 -0.3 1 -0.703125q0.328125 -0.5 0.3 -0.984375q0 -0.5 -0.3 -0.9375q-0.3125 -0.4 -1 -0.6875q-0.453125 -0.2 -2 -0.546875q-1.578125 -0.4 -2.2 -0.71875q-0.8125 -0.4 -1.2 -1.0625q-0.40625 -0.6 -0.4 -1.4375q0 -0.9 0.5 -1.609375q0.5 -0.8 1.4 -1.15625q0.953125 -0.4 2.1 -0.390625q1.28125 0 2.2 0.421875q0.96875 0.4 1.5 1.203125q0.53125 0.8 0.6 1.796875l-1.453125 0.109375q-0.125 -1.1 -0.8 -1.625q-0.671875 -0.6 -2 -0.5625q-1.375 0 -2 0.5q-0.625 0.5 -0.6 1.21875q0 0.6 0.4 1.015625q0.4375 0.4 2.3 0.8125q1.859375 0.4 2.5 0.734375q1.0 0.5 1.5 1.171875q0.484375 0.7 0.5 1.625q0 0.9 -0.5 1.71875q-0.515625 0.8 -1.5 1.265625q-0.984375 0.5 -2.2 0.453125q-1.5625 0 -2.6 -0.453125q-1.046875 -0.5 -1.7 -1.375q-0.59375 -0.9 -0.6 -2.0625zm11.9375 7.0625l-1.015625 0q2.34375 -3.8 2.3 -7.515625q0 -1.5 -0.3 -2.921875q-0.265625 -1.2 -0.7 -2.25q-0.3125 -0.7 -1.3 -2.34375l1.015625 0q1.46875 2 2.2 3.9375q0.59375 1.7 0.6 3.5625q0 2.1 -0.8 4.09375q-0.796875 2 -2 3.4375z" fill-rule="nonzero"/>
    <path fill="#cfe2f3" d="m340.07516 433.38797l299.2756 0l0 23.338562l-299.2756 0z" fill-rule="nonzero"/>
    <path stroke="#000000" stroke-width="2.0" stroke-linejoin="round" stroke-linecap="butt" stroke-dasharray="8.0,6.0" d="m340.07516 433.38797l299.2756 0l0 23.338562l-299.2756 0z" fill-rule="nonzero"/>
    <path fill="#000000" d="m351.07623 450.91724l0 -11.453125l2.28125 0l2.71875 8.109375q0.375 1.1 0.5 1.6875q0.1875 -0.6 0.6 -1.828125l2.734375 -7.96875l2.046875 0l0 11.453125l-1.46875 0l0 -9.59375l-3.328125 9.59375l-1.359375 0l-3.3125 -9.75l0 9.75l-1.46875 0zm18.609375 -1.03125q-0.78125 0.7 -1.5 0.953125q-0.71875 0.3 -1.5 0.265625q-1.375 0 -2.1 -0.671875q-0.734375 -0.7 -0.7 -1.703125q0 -0.6 0.3 -1.109375q0.28125 -0.5 0.7 -0.8125q0.453125 -0.3 1 -0.46875q0.421875 -0.1 1.2 -0.203125q1.703125 -0.2 2.5 -0.484375q0 -0.3 0 -0.375q0 -0.9 -0.4 -1.203125q-0.546875 -0.5 -1.6 -0.484375q-0.984375 0 -1.5 0.359375q-0.46875 0.3 -0.7 1.21875l-1.375 -0.1875q0.1875 -0.9 0.6 -1.421875q0.4375 -0.5 1.2 -0.828125q0.8125 -0.3 1.9 -0.296875q1.0625 0 1.7 0.25q0.671875 0.2 1 0.625q0.3125 0.4 0.4 0.953125q0.078125 0.4 0.1 1.296875l0 1.875q0 2 0.1 2.484375q0.09375 0.5 0.4 1.0l-1.46875 0q-0.21875 -0.4 -0.3 -1.03125zm-0.109375 -3.140625q-0.765625 0.3 -2.3 0.53125q-0.875 0.1 -1.2 0.28125q-0.359375 0.2 -0.6 0.46875q-0.1875 0.3 -0.2 0.65625q0 0.6 0.4 0.9375q0.4375 0.4 1.2 0.375q0.8125 0 1.4 -0.34375q0.640625 -0.4 0.9 -0.984375q0.234375 -0.5 0.2 -1.40625l0 -0.515625zm3.5859375 4.171875l0 -8.296875l1.265625 0l0 1.25q0.484375 -0.9 0.9 -1.15625q0.40625 -0.3 0.9 -0.28125q0.703125 0 1.4 0.453125l-0.484375 1.296875q-0.515625 -0.3 -1 -0.296875q-0.453125 0 -0.8 0.28125q-0.359375 0.3 -0.5 0.765625q-0.234375 0.8 -0.2 1.640625l0 4.34375l-1.40625 0zm4.78125 -2.484375l1.390625 -0.21875q0.109375 0.8 0.6 1.296875q0.546875 0.4 1.5 0.4375q0.96875 0 1.4 -0.390625q0.46875 -0.4 0.5 -0.9375q0 -0.5 -0.4 -0.75q-0.296875 -0.2 -1.4 -0.46875q-1.546875 -0.4 -2.2 -0.671875q-0.59375 -0.3 -0.9 -0.796875q-0.296875 -0.5 -0.3 -1.109375q0 -0.6 0.2 -1.03125q0.25 -0.5 0.7 -0.78125q0.328125 -0.2 0.9 -0.40625q0.578125 -0.2 1.2 -0.171875q0.984375 0 1.7 0.28125q0.734375 0.3 1.1 0.765625q0.359375 0.5 0.5 1.28125l-1.375 0.1875q-0.09375 -0.6 -0.5 -1.0q-0.453125 -0.4 -1.3 -0.359375q-0.96875 0 -1.4 0.328125q-0.40625 0.3 -0.4 0.734375q0 0.3 0.2 0.5q0.171875 0.2 0.5 0.375q0.21875 0.1 1.2 0.359375q1.484375 0.4 2.1 0.65625q0.59375 0.2 0.9 0.734375q0.34375 0.5 0.3 1.203125q0 0.7 -0.4 1.328125q-0.40625 0.6 -1.2 0.953125q-0.765625 0.3 -1.7 0.34375q-1.625 0 -2.5 -0.671875q-0.84375 -0.7 -1.1 -2.0zm8.5625 2.484375l0 -11.453125l1.40625 0l0 4.109375q0.984375 -1.1 2.5 -1.140625q0.921875 0 1.6 0.359375q0.6875 0.4 1 1.0q0.296875 0.6 0.3 1.859375l0 5.265625l-1.40625 0l0 -5.265625q0 -1 -0.5 -1.53125q-0.453125 -0.5 -1.3 -0.484375q-0.625 0 -1.2 0.328125q-0.546875 0.3 -0.8 0.890625q-0.234375 0.5 -0.2 1.515625l0 4.546875l-1.40625 0zm14.3046875 -1.03125q-0.78125 0.7 -1.5 0.953125q-0.71875 0.3 -1.5 0.265625q-1.375 0 -2.1 -0.671875q-0.734375 -0.7 -0.7 -1.703125q0 -0.6 0.3 -1.109375q0.28125 -0.5 0.7 -0.8125q0.453125 -0.3 1 -0.46875q0.421875 -0.1 1.2 -0.203125q1.703125 -0.2 2.5 -0.484375q0 -0.3 0 -0.375q0 -0.9 -0.4 -1.203125q-0.546875 -0.5 -1.6 -0.484375q-0.984375 0 -1.5 0.359375q-0.46875 0.3 -0.7 1.21875l-1.375 -0.1875q0.1875 -0.9 0.6 -1.421875q0.4375 -0.5 1.2 -0.828125q0.8125 -0.3 1.9 -0.296875q1.0625 0 1.7 0.25q0.671875 0.2 1 0.625q0.3125 0.4 0.4 0.953125q0.078125 0.4 0.1 1.296875l0 1.875q0 2 0.1 2.484375q0.09375 0.5 0.4 1.0l-1.46875 0q-0.21875 -0.4 -0.3 -1.03125zm-0.109375 -3.140625q-0.765625 0.3 -2.3 0.53125q-0.875 0.1 -1.2 0.28125q-0.359375 0.2 -0.6 0.46875q-0.1875 0.3 -0.2 0.65625q0 0.6 0.4 0.9375q0.4375 0.4 1.2 0.375q0.8125 0 1.4 -0.34375q0.640625 -0.4 0.9 -0.984375q0.234375 -0.5 0.2 -1.40625l0 -0.515625zm3.5703125 4.171875l0 -11.453125l1.40625 0l0 11.453125l-1.40625 0zm2.5234375 0.203125l3.328125 -11.859375l1.125 0l-3.3125 11.859375l-1.140625 0zm13.1953125 -11.65625l1.515625 0l0 6.609375q0 1.7 -0.4 2.75q-0.390625 1 -1.4 1.65625q-1.015625 0.6 -2.7 0.640625q-1.609375 0 -2.6 -0.5625q-1.015625 -0.6 -1.5 -1.609375q-0.4375 -1 -0.4 -2.875l0 -6.609375l1.515625 0l0 6.609375q0 1.5 0.3 2.203125q0.28125 0.7 1 1.09375q0.6875 0.4 1.7 0.375q1.671875 0 2.4 -0.75q0.71875 -0.8 0.7 -2.921875l0 -6.609375zm3.8671875 11.453125l0 -8.296875l1.265625 0l0 1.171875q0.90625 -1.4 2.6 -1.359375q0.75 0 1.4 0.265625q0.625 0.3 0.9 0.703125q0.3125 0.4 0.4 1.046875q0.078125 0.4 0.1 1.359375l0 5.109375l-1.40625 0l0 -5.046875q0 -0.9 -0.2 -1.28125q-0.15625 -0.4 -0.6 -0.6875q-0.40625 -0.2 -1 -0.25q-0.90625 0 -1.6 0.578125q-0.640625 0.6 -0.6 2.15625l0 4.53125l-1.40625 0zm8.8984375 0l0 -8.296875l1.25 0l0 1.15625q0.390625 -0.6 1 -0.96875q0.65625 -0.4 1.5 -0.375q0.921875 0 1.5 0.390625q0.59375 0.4 0.8 1.0625q0.984375 -1.5 2.6 -1.453125q1.234375 0 1.9 0.6875q0.671875 0.7 0.7 2.09375l0 5.703125l-1.390625 0l0 -5.234375q0 -0.8 -0.1 -1.203125q-0.140625 -0.4 -0.5 -0.59375q-0.359375 -0.2 -0.8 -0.234375q-0.875 0 -1.5 0.578125q-0.578125 0.6 -0.6 1.859375l0 4.828125l-1.40625 0l0 -5.390625q0 -0.9 -0.3 -1.40625q-0.34375 -0.5 -1.1 -0.46875q-0.59375 0 -1.1 0.3125q-0.5 0.3 -0.7 0.921875q-0.21875 0.6 -0.2 1.71875l0 4.3125l-1.40625 0zm18.734375 -1.03125q-0.78125 0.7 -1.5 0.953125q-0.71875 0.3 -1.5 0.265625q-1.375 0 -2.1 -0.671875q-0.734375 -0.7 -0.7 -1.703125q0 -0.6 0.3 -1.109375q0.28125 -0.5 0.7 -0.8125q0.453125 -0.3 1 -0.46875q0.421875 -0.1 1.2 -0.203125q1.703125 -0.2 2.5 -0.484375q0 -0.3 0 -0.375q0 -0.9 -0.4 -1.203125q-0.546875 -0.5 -1.6 -0.484375q-0.984375 0 -1.5 0.359375q-0.46875 0.3 -0.7 1.21875l-1.375 -0.1875q0.1875 -0.9 0.6 -1.421875q0.4375 -0.5 1.2 -0.828125q0.8125 -0.3 1.9 -0.296875q1.0625 0 1.7 0.25q0.671875 0.2 1 0.625q0.3125 0.4 0.4 0.953125q0.078125 0.4 0.1 1.296875l0 1.875q0 2 0.1 2.484375q0.09375 0.5 0.4 1.0l-1.46875 0q-0.21875 -0.4 -0.3 -1.03125zm-0.109375 -3.140625q-0.765625 0.3 -2.3 0.53125q-0.875 0.1 -1.2 0.28125q-0.359375 0.2 -0.6 0.46875q-0.1875 0.3 -0.2 0.65625q0 0.6 0.4 0.9375q0.4375 0.4 1.2 0.375q0.8125 0 1.4 -0.34375q0.640625 -0.4 0.9 -0.984375q0.234375 -0.5 0.2 -1.40625l0 -0.515625zm3.5859375 4.171875l0 -8.296875l1.265625 0l0 1.25q0.484375 -0.9 0.9 -1.15625q0.40625 -0.3 0.9 -0.28125q0.703125 0 1.4 0.453125l-0.484375 1.296875q-0.515625 -0.3 -1 -0.296875q-0.453125 0 -0.8 0.28125q-0.359375 0.3 -0.5 0.765625q-0.234375 0.8 -0.2 1.640625l0 4.34375l-1.40625 0zm4.78125 -2.484375l1.390625 -0.21875q0.109375 0.8 0.6 1.296875q0.546875 0.4 1.5 0.4375q0.96875 0 1.4 -0.390625q0.46875 -0.4 0.5 -0.9375q0 -0.5 -0.4 -0.75q-0.296875 -0.2 -1.4 -0.46875q-1.546875 -0.4 -2.2 -0.671875q-0.59375 -0.3 -0.9 -0.796875q-0.296875 -0.5 -0.3 -1.109375q0 -0.6 0.2 -1.03125q0.25 -0.5 0.7 -0.78125q0.328125 -0.2 0.9 -0.40625q0.578125 -0.2 1.2 -0.171875q0.984375 0 1.7 0.28125q0.734375 0.3 1.1 0.765625q0.359375 0.5 0.5 1.28125l-1.375 0.1875q-0.09375 -0.6 -0.5 -1.0q-0.453125 -0.4 -1.3 -0.359375q-0.96875 0 -1.4 0.328125q-0.40625 0.3 -0.4 0.734375q0 0.3 0.2 0.5q0.171875 0.2 0.5 0.375q0.21875 0.1 1.2 0.359375q1.484375 0.4 2.1 0.65625q0.59375 0.2 0.9 0.734375q0.34375 0.5 0.3 1.203125q0 0.7 -0.4 1.328125q-0.40625 0.6 -1.2 0.953125q-0.765625 0.3 -1.7 0.34375q-1.625 0 -2.5 -0.671875q-0.84375 -0.7 -1.1 -2.0zm8.5625 2.484375l0 -11.453125l1.40625 0l0 4.109375q0.984375 -1.1 2.5 -1.140625q0.921875 0 1.6 0.359375q0.6875 0.4 1 1.0q0.296875 0.6 0.3 1.859375l0 5.265625l-1.40625 0l0 -5.265625q0 -1 -0.5 -1.53125q-0.453125 -0.5 -1.3 -0.484375q-0.625 0 -1.2 0.328125q-0.546875 0.3 -0.8 0.890625q-0.234375 0.5 -0.2 1.515625l0 4.546875l-1.40625 0zm14.3046875 -1.03125q-0.78125 0.7 -1.5 0.953125q-0.71875 0.3 -1.5 0.265625q-1.375 0 -2.1 -0.671875q-0.734375 -0.7 -0.7 -1.703125q0 -0.6 0.3 -1.109375q0.28125 -0.5 0.7 -0.8125q0.453125 -0.3 1 -0.46875q0.421875 -0.1 1.2 -0.203125q1.703125 -0.2 2.5 -0.484375q0 -0.3 0 -0.375q0 -0.9 -0.4 -1.203125q-0.546875 -0.5 -1.6 -0.484375q-0.984375 0 -1.5 0.359375q-0.46875 0.3 -0.7 1.21875l-1.375 -0.1875q0.1875 -0.9 0.6 -1.421875q0.4375 -0.5 1.2 -0.828125q0.8125 -0.3 1.9 -0.296875q1.0625 0 1.7 0.25q0.671875 0.2 1 0.625q0.3125 0.4 0.4 0.953125q0.078125 0.4 0.1 1.296875l0 1.875q0 2 0.1 2.484375q0.09375 0.5 0.4 1.0l-1.46875 0q-0.21875 -0.4 -0.3 -1.03125zm-0.109375 -3.140625q-0.765625 0.3 -2.3 0.53125q-0.875 0.1 -1.2 0.28125q-0.359375 0.2 -0.6 0.46875q-0.1875 0.3 -0.2 0.65625q0 0.6 0.4 0.9375q0.4375 0.4 1.2 0.375q0.8125 0 1.4 -0.34375q0.640625 -0.4 0.9 -0.984375q0.234375 -0.5 0.2 -1.40625l0 -0.515625zm3.5703125 4.171875l0 -11.453125l1.40625 0l0 11.453125l-1.40625 0zm10.71875 3.375q-1.171875 -1.5 -2 -3.4375q-0.796875 -2 -0.8 -4.09375q0 -1.9 0.6 -3.5625q0.703125 -2 2.2 -3.9375l1.0 0q-0.9375 1.6 -1.2 2.328125q-0.46875 1.1 -0.8 2.25q-0.328125 1.5 -0.3 2.9375q0 3.8 2.3 7.515625l-1.0 0zm2.046875 -6.625l1.359375 -0.1875q0.0625 1.3 0.5 1.796875q0.4375 0.5 1.2 0.484375q0.578125 0 1 -0.265625q0.421875 -0.3 0.6 -0.703125q0.15625 -0.5 0.2 -1.4375l0 -7.890625l1.515625 0l0 7.796875q0 1.4 -0.4 2.234375q-0.34375 0.8 -1.1 1.203125q-0.75 0.4 -1.8 0.421875q-1.515625 0 -2.3 -0.875q-0.796875 -0.9 -0.8 -2.578125zm8.25 -0.4375l1.4375 -0.125q0.09375 0.9 0.5 1.421875q0.375 0.5 1.2 0.890625q0.78125 0.3 1.8 0.328125q0.875 0 1.5 -0.25q0.671875 -0.3 1 -0.703125q0.328125 -0.5 0.3 -0.984375q0 -0.5 -0.3 -0.9375q-0.3125 -0.4 -1 -0.6875q-0.453125 -0.2 -2 -0.546875q-1.578125 -0.4 -2.2 -0.71875q-0.8125 -0.4 -1.2 -1.0625q-0.40625 -0.6 -0.4 -1.4375q0 -0.9 0.5 -1.609375q0.5 -0.8 1.4 -1.15625q0.953125 -0.4 2.1 -0.390625q1.28125 0 2.2 0.421875q0.96875 0.4 1.5 1.203125q0.53125 0.8 0.6 1.796875l-1.453125 0.109375q-0.125 -1.1 -0.8 -1.625q-0.671875 -0.6 -2 -0.5625q-1.375 0 -2 0.5q-0.625 0.5 -0.6 1.21875q0 0.6 0.4 1.015625q0.4375 0.4 2.3 0.8125q1.859375 0.4 2.5 0.734375q1.0 0.5 1.5 1.171875q0.484375 0.7 0.5 1.625q0 0.9 -0.5 1.71875q-0.515625 0.8 -1.5 1.265625q-0.984375 0.5 -2.2 0.453125q-1.5625 0 -2.6 -0.453125q-1.046875 -0.5 -1.7 -1.375q-0.59375 -0.9 -0.6 -2.0625zm10.734375 -1.890625q0 -2.9 1.5 -4.46875q1.53125 -1.6 4 -1.609375q1.578125 0 2.8 0.765625q1.28125 0.8 2 2.109375q0.671875 1.3 0.7 3.0625q0 1.8 -0.7 3.125q-0.703125 1.4 -2 2.09375q-1.28125 0.7 -2.8 0.703125q-1.609375 0 -2.9 -0.78125q-1.265625 -0.8 -1.9 -2.140625q-0.65625 -1.4 -0.7 -2.859375zm1.5625 0.015625q0 2.1 1.1 3.265625q1.109375 1.2 2.8 1.1875q1.703125 0 2.8 -1.203125q1.109375 -1.2 1.1 -3.40625q0 -1.4 -0.5 -2.4375q-0.46875 -1 -1.4 -1.625q-0.90625 -0.6 -2 -0.578125q-1.609375 0 -2.8 1.109375q-1.15625 1.1 -1.2 3.6875zm11.3203125 5.5625l0 -11.453125l1.5625 0l6.015625 8.984375l0 -8.984375l1.453125 0l0 11.453125l-1.5625 0l-6.015625 -9.0l0 9.0l-1.453125 0zm15.65625 -5.015625l0 -1.3125l7.59375 -3.203125l0 1.40625l-6.015625 2.46875l6.015625 2.484375l0 1.40625l-7.59375 -3.25zm16.921875 -1.71875l-7.5625 0l0 -1.3125l7.5625 0l0 1.3125zm0 3.46875l-7.5625 0l0 -1.3125l7.5625 0l0 1.3125zm9.359375 -1.75l-7.59375 3.25l0 -1.40625l6.015625 -2.484375l-6.015625 -2.46875l0 -1.40625l7.59375 3.203125l0 1.3125zm6.1015625 -0.5625q0 -2.9 1.5 -4.46875q1.53125 -1.6 4 -1.609375q1.578125 0 2.8 0.765625q1.28125 0.8 2 2.109375q0.671875 1.3 0.7 3.0625q0 1.8 -0.7 3.125q-0.703125 1.4 -2 2.09375q-1.28125 0.7 -2.8 0.703125q-1.609375 0 -2.9 -0.78125q-1.265625 -0.8 -1.9 -2.140625q-0.65625 -1.4 -0.7 -2.859375zm1.5625 0.015625q0 2.1 1.1 3.265625q1.109375 1.2 2.8 1.1875q1.703125 0 2.8 -1.203125q1.109375 -1.2 1.1 -3.40625q0 -1.4 -0.5 -2.4375q-0.46875 -1 -1.4 -1.625q-0.90625 -0.6 -2 -0.578125q-1.609375 0 -2.8 1.109375q-1.15625 1.1 -1.2 3.6875zm12.4609375 5.5625l-1.3125 0l0 -11.453125l1.40625 0l0 4.078125q0.890625 -1.1 2.3 -1.109375q0.765625 0 1.4 0.3125q0.6875 0.3 1.1 0.859375q0.453125 0.6 0.7 1.359375q0.25 0.8 0.2 1.671875q0 2.1 -1.1 3.3125q-1.046875 1.2 -2.5 1.15625q-1.46875 0 -2.3 -1.234375l0 1.046875zm-0.015625 -4.21875q0 1.5 0.4 2.15625q0.65625 1.1 1.8 1.09375q0.921875 0 1.6 -0.796875q0.671875 -0.8 0.7 -2.390625q0 -1.6 -0.7 -2.390625q-0.640625 -0.8 -1.5 -0.78125q-0.921875 0 -1.6 0.796875q-0.671875 0.8 -0.7 2.3125zm7.6015625 -5.609375l0 -1.625l1.40625 0l0 1.625l-1.40625 0zm-1.78125 13.046875l0.265625 -1.1875q0.421875 0.1 0.7 0.109375q0.421875 0 0.6 -0.296875q0.21875 -0.3 0.2 -1.421875l0 -8.71875l1.40625 0l0 8.75q0 1.5 -0.4 2.140625q-0.515625 0.8 -1.7 0.78125q-0.578125 0 -1.1 -0.15625zm11.0234375 -5.890625l1.453125 0.171875q-0.34375 1.3 -1.3 1.984375q-0.921875 0.7 -2.4 0.703125q-1.828125 0 -2.9 -1.125q-1.0625 -1.1 -1.1 -3.140625q0 -2.1 1.1 -3.25q1.078125 -1.2 2.8 -1.15625q1.65625 0 2.7 1.140625q1.0625 1.1 1.1 3.171875q0 0.1 0 0.375l-6.1875 0q0.078125 1.4 0.8 2.109375q0.703125 0.7 1.7 0.71875q0.78125 0 1.3 -0.40625q0.546875 -0.4 0.9 -1.296875zm-4.609375 -2.28125l4.625 0q-0.09375 -1 -0.5 -1.5625q-0.671875 -0.8 -1.7 -0.8125q-0.96875 0 -1.6 0.65625q-0.65625 0.6 -0.7 1.71875zm13.2421875 1.90625l1.390625 0.1875q-0.234375 1.4 -1.2 2.234375q-0.921875 0.8 -2.3 0.8125q-1.703125 0 -2.8 -1.109375q-1.03125 -1.1 -1 -3.203125q0 -1.3 0.4 -2.34375q0.453125 -1 1.4 -1.515625q0.921875 -0.5 2 -0.5q1.359375 0 2.2 0.6875q0.859375 0.7 1.1 1.9375l-1.359375 0.203125q-0.203125 -0.8 -0.7 -1.25q-0.484375 -0.4 -1.2 -0.421875q-1.0625 0 -1.7 0.765625q-0.65625 0.8 -0.7 2.40625q0 1.7 0.6 2.4375q0.640625 0.8 1.7 0.75q0.828125 0 1.4 -0.5q0.5625 -0.5 0.7 -1.578125zm5.65625 1.78125l0.203125 1.25q-0.59375 0.1 -1.1 0.125q-0.765625 0 -1.2 -0.234375q-0.421875 -0.2 -0.6 -0.640625q-0.171875 -0.4 -0.2 -1.671875l0 -4.765625l-1.03125 0l0 -1.09375l1.03125 0l0 -2.0625l1.40625 -0.84375l0 2.90625l1.40625 0l0 1.09375l-1.40625 0l0 4.84375q0 0.6 0.1 0.78125q0.078125 0.2 0.2 0.28125q0.171875 0.1 0.5 0.09375q0.234375 0 0.6 -0.0625zm2.3046875 4.640625l-1.015625 0q2.34375 -3.8 2.3 -7.515625q0 -1.5 -0.3 -2.921875q-0.265625 -1.2 -0.7 -2.25q-0.3125 -0.7 -1.3 -2.34375l1.015625 0q1.46875 2 2.2 3.9375q0.59375 1.7 0.6 3.5625q0 2.1 -0.8 4.09375q-0.796875 2 -2 3.4375z" fill-rule="nonzero"/>
    <path fill="#cfe2f3" d="m500.7964 199.61095l0 0c0 -4.8 3.9 -8.8 8.8 -8.771835l120.97604 0c2.326416 0 4.6 0.9 6.2 2.5692139c1.6450195 1.6 2.6 3.9 2.6 6.2026215l0 35.086258c0 4.8 -3.9 8.8 -8.8 8.771835l-120.97604 0l0 0c-4.8445435 0 -8.8 -3.9 -8.8 -8.771835z" fill-rule="nonzero"/>
    <path stroke="#000000" stroke-width="2.0" stroke-linejoin="round" stroke-linecap="butt" d="m500.7964 199.61095l0 0c0 -4.8 3.9 -8.8 8.8 -8.771835l120.97604 0c2.326416 0 4.6 0.9 6.2 2.5692139c1.6450195 1.6 2.6 3.9 2.6 6.2026215l0 35.086258c0 4.8 -3.9 8.8 -8.8 8.771835l-120.97604 0l0 0c-4.8445435 0 -8.8 -3.9 -8.8 -8.771835z" fill-rule="nonzero"/>
    <path fill="#000000" d="m543.77106 213.51407l0 -11.453125l1.515625 0l0 4.703125l5.953125 0l0 -4.703125l1.515625 0l0 11.453125l-1.515625 0l0 -5.40625l-5.953125 0l0 5.40625l-1.515625 0zm17.007812 -2.671875l1.453125 0.171875q-0.34375 1.3 -1.3 1.984375q-0.921875 0.7 -2.4 0.703125q-1.828125 0 -2.9 -1.125q-1.0625 -1.1 -1.1 -3.140625q0 -2.1 1.1 -3.25q1.078125 -1.2 2.8 -1.15625q1.65625 0 2.7 1.140625q1.0625 1.1 1.1 3.171875q0 0.1 0 0.375l-6.1875 0q0.078125 1.4 0.8 2.109375q0.703125 0.7 1.7 0.71875q0.78125 0 1.3 -0.40625q0.546875 -0.4 0.9 -1.296875zm-4.609375 -2.28125l4.625 0q-0.09375 -1 -0.5 -1.5625q-0.671875 -0.8 -1.7 -0.8125q-0.96875 0 -1.6 0.65625q-0.65625 0.6 -0.7 1.71875zm7.8046875 4.953125l0 -11.453125l1.40625 0l0 11.453125l-1.40625 0zm3.5859375 3.1875l0 -11.484375l1.28125 0l0 1.078125q0.453125 -0.6 1 -0.953125q0.578125 -0.3 1.4 -0.3125q1.0625 0 1.9 0.546875q0.8125 0.5 1.2 1.546875q0.421875 1 0.4 2.171875q0 1.3 -0.5 2.296875q-0.453125 1 -1.3 1.5625q-0.859375 0.5 -1.8 0.546875q-0.703125 0 -1.3 -0.296875q-0.546875 -0.3 -0.9 -0.75l0 4.046875l-1.40625 0zm1.265625 -7.296875q0 1.6 0.6 2.375q0.65625 0.8 1.6 0.765625q0.9375 0 1.6 -0.796875q0.671875 -0.8 0.7 -2.453125q0 -1.6 -0.7 -2.375q-0.65625 -0.8 -1.6 -0.796875q-0.890625 0 -1.6 0.84375q-0.6875 0.8 -0.7 2.4375zm13.3046875 1.4375l1.453125 0.171875q-0.34375 1.3 -1.3 1.984375q-0.921875 0.7 -2.4 0.703125q-1.828125 0 -2.9 -1.125q-1.0625 -1.1 -1.1 -3.140625q0 -2.1 1.1 -3.25q1.078125 -1.2 2.8 -1.15625q1.65625 0 2.7 1.140625q1.0625 1.1 1.1 3.171875q0 0.1 0 0.375l-6.1875 0q0.078125 1.4 0.8 2.109375q0.703125 0.7 1.7 0.71875q0.78125 0 1.3 -0.40625q0.546875 -0.4 0.9 -1.296875zm-4.609375 -2.28125l4.625 0q-0.09375 -1 -0.5 -1.5625q-0.671875 -0.8 -1.7 -0.8125q-0.96875 0 -1.6 0.65625q-0.65625 0.6 -0.7 1.71875zm7.8203125 4.953125l0 -8.296875l1.265625 0l0 1.25q0.484375 -0.9 0.9 -1.15625q0.40625 -0.3 0.9 -0.28125q0.703125 0 1.4 0.453125l-0.484375 1.296875q-0.515625 -0.3 -1 -0.296875q-0.453125 0 -0.8 0.28125q-0.359375 0.3 -0.5 0.765625q-0.234375 0.8 -0.2 1.640625l0 4.34375l-1.40625 0zm4.78125 -2.484375l1.390625 -0.21875q0.109375 0.8 0.6 1.296875q0.546875 0.4 1.5 0.4375q0.96875 0 1.4 -0.390625q0.46875 -0.4 0.5 -0.9375q0 -0.5 -0.4 -0.75q-0.296875 -0.2 -1.4 -0.46875q-1.546875 -0.4 -2.2 -0.671875q-0.59375 -0.3 -0.9 -0.796875q-0.296875 -0.5 -0.3 -1.109375q0 -0.6 0.2 -1.03125q0.25 -0.5 0.7 -0.78125q0.328125 -0.2 0.9 -0.40625q0.578125 -0.2 1.2 -0.171875q0.984375 0 1.7 0.28125q0.734375 0.3 1.1 0.765625q0.359375 0.5 0.5 1.28125l-1.375 0.1875q-0.09375 -0.6 -0.5 -1.0q-0.453125 -0.4 -1.3 -0.359375q-0.96875 0 -1.4 0.328125q-0.40625 0.3 -0.4 0.734375q0 0.3 0.2 0.5q0.171875 0.2 0.5 0.375q0.21875 0.1 1.2 0.359375q1.484375 0.4 2.1 0.65625q0.59375 0.2 0.9 0.734375q0.34375 0.5 0.3 1.203125q0 0.7 -0.4 1.328125q-0.40625 0.6 -1.2 0.953125q-0.765625 0.3 -1.7 0.34375q-1.625 0 -2.5 -0.671875q-0.84375 -0.7 -1.1 -2.0z" fill-rule="nonzero"/>
    <path fill="#000000" d="m544.4664 235.88907q-1.171875 -1.5 -2 -3.4375q-0.796875 -2 -0.8 -4.09375q0 -1.9 0.6 -3.5625q0.703125 -2 2.2 -3.9375l1.0 0q-0.9375 1.6 -1.2 2.328125q-0.46875 1.1 -0.8 2.25q-0.328125 1.5 -0.3 2.9375q0 3.8 2.3 7.515625l-1.0 0zm10.984375 -7.390625l1.515625 0.375q-0.46875 1.9 -1.7 2.859375q-1.234375 1 -3 0.984375q-1.859375 0 -3 -0.75q-1.15625 -0.8 -1.8 -2.1875q-0.609375 -1.4 -0.6 -3.078125q0 -1.8 0.7 -3.125q0.6875 -1.3 1.9 -2.015625q1.265625 -0.7 2.8 -0.703125q1.71875 0 2.9 0.875q1.171875 0.9 1.6 2.46875l-1.5 0.34375q-0.390625 -1.2 -1.2 -1.8125q-0.75 -0.6 -1.9 -0.578125q-1.3125 0 -2.2 0.640625q-0.890625 0.6 -1.2 1.703125q-0.359375 1.1 -0.4 2.1875q0 1.5 0.4 2.5625q0.4375 1.1 1.3 1.625q0.90625 0.5 2 0.53125q1.265625 0 2.1 -0.734375q0.890625 -0.7 1.2 -2.171875zm8.6171875 2.984375q-0.78125 0.7 -1.5 0.953125q-0.71875 0.3 -1.5 0.265625q-1.375 0 -2.1 -0.671875q-0.734375 -0.7 -0.7 -1.703125q0 -0.6 0.3 -1.109375q0.28125 -0.5 0.7 -0.8125q0.453125 -0.3 1 -0.46875q0.421875 -0.1 1.2 -0.203125q1.703125 -0.2 2.5 -0.484375q0 -0.3 0 -0.375q0 -0.9 -0.4 -1.203125q-0.546875 -0.5 -1.6 -0.484375q-0.984375 0 -1.5 0.359375q-0.46875 0.3 -0.7 1.21875l-1.375 -0.1875q0.1875 -0.9 0.6 -1.421875q0.4375 -0.5 1.2 -0.828125q0.8125 -0.3 1.9 -0.296875q1.0625 0 1.7 0.25q0.671875 0.2 1 0.625q0.3125 0.4 0.4 0.953125q0.078125 0.4 0.1 1.296875l0 1.875q0 2 0.1 2.484375q0.09375 0.5 0.4 1.0l-1.46875 0q-0.21875 -0.4 -0.3 -1.03125zm-0.109375 -3.140625q-0.765625 0.3 -2.3 0.53125q-0.875 0.1 -1.2 0.28125q-0.359375 0.2 -0.6 0.46875q-0.1875 0.3 -0.2 0.65625q0 0.6 0.4 0.9375q0.4375 0.4 1.2 0.375q0.8125 0 1.4 -0.34375q0.640625 -0.4 0.9 -0.984375q0.234375 -0.5 0.2 -1.40625l0 -0.515625zm3.6015625 4.171875l0 -8.296875l1.265625 0l0 1.171875q0.90625 -1.4 2.6 -1.359375q0.75 0 1.4 0.265625q0.625 0.3 0.9 0.703125q0.3125 0.4 0.4 1.046875q0.078125 0.4 0.1 1.359375l0 5.109375l-1.40625 0l0 -5.046875q0 -0.9 -0.2 -1.28125q-0.15625 -0.4 -0.6 -0.6875q-0.40625 -0.2 -1 -0.25q-0.90625 0 -1.6 0.578125q-0.640625 0.6 -0.6 2.15625l0 4.53125l-1.40625 0zm8.3046875 -3.25l1.359375 -0.1875q0.0625 1.3 0.5 1.796875q0.4375 0.5 1.2 0.484375q0.578125 0 1 -0.265625q0.421875 -0.3 0.6 -0.703125q0.15625 -0.5 0.2 -1.4375l0 -7.890625l1.515625 0l0 7.796875q0 1.4 -0.4 2.234375q-0.34375 0.8 -1.1 1.203125q-0.75 0.4 -1.8 0.421875q-1.515625 0 -2.3 -0.875q-0.796875 -0.9 -0.8 -2.578125zm8.25 -0.4375l1.4375 -0.125q0.09375 0.9 0.5 1.421875q0.375 0.5 1.2 0.890625q0.78125 0.3 1.8 0.328125q0.875 0 1.5 -0.25q0.671875 -0.3 1 -0.703125q0.328125 -0.5 0.3 -0.984375q0 -0.5 -0.3 -0.9375q-0.3125 -0.4 -1 -0.6875q-0.453125 -0.2 -2 -0.546875q-1.578125 -0.4 -2.2 -0.71875q-0.8125 -0.4 -1.2 -1.0625q-0.40625 -0.6 -0.4 -1.4375q0 -0.9 0.5 -1.609375q0.5 -0.8 1.4 -1.15625q0.953125 -0.4 2.1 -0.390625q1.28125 0 2.2 0.421875q0.96875 0.4 1.5 1.203125q0.53125 0.8 0.6 1.796875l-1.453125 0.109375q-0.125 -1.1 -0.8 -1.625q-0.671875 -0.6 -2 -0.5625q-1.375 0 -2 0.5q-0.625 0.5 -0.6 1.21875q0 0.6 0.4 1.015625q0.4375 0.4 2.3 0.8125q1.859375 0.4 2.5 0.734375q1.0 0.5 1.5 1.171875q0.484375 0.7 0.5 1.625q0 0.9 -0.5 1.71875q-0.515625 0.8 -1.5 1.265625q-0.984375 0.5 -2.2 0.453125q-1.5625 0 -2.6 -0.453125q-1.046875 -0.5 -1.7 -1.375q-0.59375 -0.9 -0.6 -2.0625zm11.9375 7.0625l-1.015625 0q2.34375 -3.8 2.3 -7.515625q0 -1.5 -0.3 -2.921875q-0.265625 -1.2 -0.7 -2.25q-0.3125 -0.7 -1.3 -2.34375l1.015625 0q1.46875 2 2.2 3.9375q0.59375 1.7 0.6 3.5625q0 2.1 -0.8 4.09375q-0.796875 2 -2 3.4375z" fill-rule="nonzero"/>
    <path fill="#cfe2f3" d="m474.12302 614.2702l0 0c0 3.9 12.7 7.1 28.3 7.074829c15.629211 0 28.3 -3.2 28.3 -7.074829l0 61.125977c0 3.9 -12.7 7.1 -28.3 7.074829c-15.629211 0 -28.3 -3.2 -28.3 -7.074829z" fill-rule="nonzero"/>
    <path fill="#e2edf7" d="m474.12302 614.2702l0 0c0 -3.9 12.7 -7.1 28.3 -7.074768c15.629211 0 28.3 3.2 28.3 7.074768l0 0c0 3.9 -12.7 7.1 -28.3 7.074829c-15.629211 0 -28.3 -3.2 -28.3 -7.074829z" fill-rule="nonzero"/>
    <path fill="#000000" fill-opacity="0.0" d="m530.72144 614.2702l0 0c0 3.9 -12.7 7.1 -28.3 7.074829c-15.629211 0 -28.3 -3.2 -28.3 -7.074829l0 0c0 -3.9 12.7 -7.1 28.3 -7.074768c15.629211 0 28.3 3.2 28.3 7.074768l0 61.125977c0 3.9 -12.7 7.1 -28.3 7.074829c-15.629211 0 -28.3 -3.2 -28.3 -7.074829l0 -61.1" fill-rule="nonzero"/>
    <path stroke="#000000" stroke-width="2.0" stroke-linejoin="round" stroke-linecap="butt" d="m530.72144 614.2702l0 0c0 3.9 -12.7 7.1 -28.3 7.074829c-15.629211 0 -28.3 -3.2 -28.3 -7.074829l0 0c0 -3.9 12.7 -7.1 28.3 -7.074768c15.629211 0 28.3 3.2 28.3 7.074768l0 61.125977c0 3.9 -12.7 7.1 -28.3 7.074829c-15.629211 0 -28.3 -3.2 -28.3 -7.074829l0 -61.1" fill-rule="nonzero"/>
    <path fill="#000000" d="m490.93274 655.2906l0 -13.59375l4.6875 0q1.578125 0 2.4 0.1875q1.15625 0.3 2 0.96875q1.078125 0.9 1.6 2.34375q0.53125 1.4 0.5 3.21875q0 1.5 -0.4 2.75q-0.359375 1.2 -0.9 1.984375q-0.5625 0.8 -1.2 1.234375q-0.671875 0.4 -1.6 0.671875q-0.953125 0.2 -2.2 0.234375l-4.90625 0zm1.796875 -1.609375l2.90625 0q1.34375 0 2.1 -0.25q0.765625 -0.2 1.2 -0.703125q0.640625 -0.6 1 -1.71875q0.359375 -1.1 0.4 -2.625q0 -2.1 -0.7 -3.265625q-0.703125 -1.2 -1.7 -1.546875q-0.71875 -0.3 -2.3 -0.28125l-2.859375 0l0 10.390625zm11.597931 1.609375l0 -13.59375l5.109375 0q1.546875 0 2.5 0.40625q0.9531555 0.4 1.5 1.265625q0.53125 0.9 0.5 1.796875q0 0.9 -0.5 1.65625q-0.46875 0.8 -1.4 1.234375q1.234375 0.4 1.9 1.234375q0.671875 0.9 0.7 2.0625q0 1 -0.4 1.78125q-0.390625 0.8 -1 1.265625q-0.59375 0.4 -1.5 0.671875q-0.890625 0.2 -2.2 0.21875l-5.1875 0zm1.796875 -7.890625l2.9375 0q1.203125 0 1.7 -0.15625q0.6875 -0.2 1 -0.671875q0.35940552 -0.5 0.4 -1.1875q0 -0.7 -0.3 -1.1875q-0.328125 -0.5 -0.9 -0.703125q-0.59375 -0.2 -2.1 -0.203125l-2.71875 0l0 4.109375zm0 6.28125l3.390625 0q0.875 0 1.2 -0.0625q0.625 -0.1 1 -0.359375q0.42190552 -0.3 0.7 -0.765625q0.265625 -0.5 0.3 -1.140625q0 -0.8 -0.4 -1.328125q-0.39065552 -0.6 -1.1 -0.78125q-0.6875 -0.2 -2 -0.234375l-3.15625 0l0 4.671875z" fill-rule="nonzero"/>
    <path fill="#cfe2f3" d="m448.5327 59.766796l0 0c0 -23.9 19.4 -43.3 43.3 -43.338585c23.935272 0 43.3 19.4 43.3 43.338585c0 23.9 -19.4 43.3 -43.3 43.33859c-23.935242 0 -43.3 -19.4 -43.3 -43.33859z" fill-rule="nonzero"/>
    <path fill="#a5b4c2" d="m473.47247 46.80535c0 -2.5 2 -4.5 4.5 -4.514435c2.4932556 0 4.5 2 4.5 4.514435c0 2.5 -2 4.5 -4.5 4.514435c-2.4932556 0 -4.5 -2 -4.5 -4.514435m27.768799 0c0 -2.5 2 -4.5 4.5 -4.514435c2.4932556 0 4.5 2 4.5 4.514435c0 2.5 -2 4.5 -4.5 4.514435c-2.4932556 0 -4.5 -2 -4.5 -4.5" fill-rule="nonzero"/>
    <path fill="#000000" fill-opacity="0.0" d="m468.3815 78.667046q23.489807 16.1 46.9 0" fill-rule="nonzero"/>
    <path fill="#000000" fill-opacity="0.0" d="m448.5327 59.766796l0 0c0 -23.9 19.4 -43.3 43.3 -43.338585c23.935272 0 43.3 19.4 43.3 43.338585c0 23.9 -19.4 43.3 -43.3 43.33859c-23.935242 0 -43.3 -19.4 -43.3 -43.33859z" fill-rule="nonzero"/>
    <path stroke="#000000" stroke-width="2.0" stroke-linejoin="round" stroke-linecap="butt" d="m473.47247 46.80535c0 -2.5 2 -4.5 4.5 -4.514435c2.4932556 0 4.5 2 4.5 4.514435c0 2.5 -2 4.5 -4.5 4.514435c-2.4932556 0 -4.5 -2 -4.5 -4.514435m27.768799 0c0 -2.5 2 -4.5 4.5 -4.514435c2.4932556 0 4.5 2 4.5 4.514435c0 2.5 -2 4.5 -4.5 4.514435c-2.4932556 0 -4.5 -2 -4.5 -4.5" fill-rule="nonzero"/>
    <path stroke="#000000" stroke-width="2.0" stroke-linejoin="round" stroke-linecap="butt" d="m468.3815 78.667046q23.489807 16.1 46.9 0" fill-rule="nonzero"/>
    <path stroke="#000000" stroke-width="2.0" stroke-linejoin="round" stroke-linecap="butt" d="m448.5327 59.766796l0 0c0 -23.9 19.4 -43.3 43.3 -43.338585c23.935272 0 43.3 19.4 43.3 43.338585c0 23.9 -19.4 43.3 -43.3 43.33859c-23.935242 0 -43.3 -19.4 -43.3 -43.33859z" fill-rule="nonzero"/>
    <path fill="#000000" d="m484.91064 63.2543l1.234375 0l0 5.390621q0 1.4 -0.3 2.21875q-0.3125 0.8 -1.1 1.34375q-0.828125 0.5 -2.2 0.515625q-1.3125 0 -2.1 -0.453125q-0.828125 -0.5 -1.2 -1.296875q-0.359375 -0.9 -0.4 -2.328125l0 -5.390621l1.234375 0l0 5.374996q0 1.2 0.2 1.796875q0.234375 0.6 0.8 0.875q0.546875 0.3 1.3 0.3125q1.359375 0 1.9 -0.609375q0.578125 -0.6 0.6 -2.375l0 -5.374996zm2.9220276 7.296871l1.125 -0.171875q0.09375 0.7 0.5 1.046875q0.4375 0.4 1.2 0.359375q0.78125 0 1.2 -0.3125q0.390625 -0.3 0.4 -0.765625q0 -0.4 -0.3 -0.609375q-0.234375 -0.2 -1.2 -0.390625q-1.25 -0.3 -1.7 -0.546875q-0.484375 -0.2 -0.7 -0.640625q-0.25 -0.4 -0.2 -0.90625q0 -0.5 0.2 -0.828125q0.203125 -0.4 0.6 -0.640625q0.265625 -0.2 0.7 -0.328125q0.46875 -0.1 1 -0.140625q0.78125 0 1.4 0.234375q0.609375 0.2 0.9 0.609375q0.296875 0.4 0.4 1.046875l-1.125 0.15625q-0.078125 -0.5 -0.4 -0.8125q-0.359375 -0.3 -1 -0.296875q-0.78125 0 -1.1 0.265625q-0.34375 0.2 -0.3 0.609375q0 0.2 0.1 0.390625q0.140625 0.2 0.4 0.3125q0.171875 0.1 1 0.28125q1.21875 0.3 1.7 0.53125q0.484375 0.2 0.8 0.609375q0.28125 0.4 0.3 0.96875q0 0.6 -0.3 1.078125q-0.328125 0.5 -1 0.78125q-0.625 0.3 -1.4 0.28125q-1.3125 0 -2 -0.546875q-0.6875 -0.5 -0.9 -1.625zm11.7265625 -0.15625l1.1875 0.140625q-0.28125 1 -1 1.625q-0.75 0.6 -1.9 0.5625q-1.484375 0 -2.4 -0.90625q-0.859375 -0.9 -0.9 -2.5625q0 -1.7 0.9 -2.640625q0.890625 -0.9 2.3 -0.9375q1.359375 0 2.2 0.921875q0.859375 0.9 0.9 2.578125q0 0.1 0 0.3125l-5.03125 0q0.0625 1.1 0.6 1.703125q0.5625 0.6 1.4 0.59375q0.640625 0 1.1 -0.328125q0.453125 -0.3 0.7 -1.0625zm-3.75 -1.84375l3.765625 0q-0.078125 -0.9 -0.4 -1.28125q-0.546875 -0.7 -1.4 -0.65625q-0.796875 0 -1.3 0.53125q-0.53125 0.5 -0.6 1.40625zm6.5374756 4.015625l0 -6.734375l1.03125 0l0 1.015625q0.390625 -0.7 0.7 -0.9375q0.34375 -0.2 0.7 -0.234375q0.578125 0 1.2 0.359375l-0.390625 1.0625q-0.421875 -0.2 -0.8 -0.25q-0.375 0 -0.7 0.234375q-0.296875 0.2 -0.4 0.625q-0.1875 0.6 -0.2 1.328125l0 3.53125l-1.140625 0z" fill-rule="nonzero"/>
    <path fill="#cfe2f3" d="m151.51886 620.50745l15.330719 0l0 -533.0551l30.661407 0l0 533.0551l15.330719 0l-30.661423 30.661438z" fill-rule="nonzero"/>
    <path stroke="#000000" stroke-width="2.0" stroke-linejoin="round" stroke-linecap="butt" d="m151.51886 620.50745l15.330719 0l0 -533.0551l30.661407 0l0 533.0551l15.330719 0l-30.661423 30.661438z" fill-rule="nonzero"/>
    <path fill="#000000" d="m177.34958 302.56522l0 -13.59375l6.03125 0q1.8125 0 2.8 0.359375q0.953125 0.4 1.5 1.296875q0.5625 0.9 0.6 2.046875q0 1.5 -0.9 2.453125q-0.921875 1 -2.9 1.25q0.71875 0.3 1.1 0.671875q0.78125 0.7 1.5 1.8125l2.375 3.703125l-2.265625 0l-1.796875 -2.828125q-0.796875 -1.2 -1.3 -1.875q-0.5 -0.7 -0.9 -0.90625q-0.40625 -0.3 -0.8 -0.359375q-0.3125 -0.1 -1 -0.078125l-2.078125 0l0 6.046875l-1.796875 0zm1.796875 -7.59375l3.859375 0q1.234375 0 1.9 -0.25q0.703125 -0.3 1.1 -0.828125q0.375 -0.6 0.4 -1.21875q0 -1 -0.7 -1.578125q-0.703125 -0.6 -2.2 -0.625l-4.296875 0l0 4.5z" fill-rule="nonzero"/>
    <path fill="#000000" d="m183.84958 321.39334l1.71875 0.21875q-0.40625 1.5 -1.5 2.34375q-1.09375 0.8 -2.8 0.828125q-2.15625 0 -3.4 -1.328125q-1.265625 -1.3 -1.3 -3.734375q0 -2.5 1.3 -3.859375q1.28125 -1.4 3.3 -1.375q1.984375 0 3.2 1.34375q1.25 1.3 1.2 3.796875q0 0.1 -0 0.4375l-7.34375 0q0.09375 1.6 0.9 2.484375q0.828125 0.9 2.1 0.859375q0.90625 0 1.5 -0.46875q0.65625 -0.5 1 -1.546875zm-5.484375 -2.703125l5.5 0q-0.109375 -1.2 -0.6 -1.859375q-0.796875 -1 -2.1 -0.96875q-1.140625 0 -1.9 0.78125q-0.78125 0.8 -0.9 2.046875z" fill-rule="nonzero"/>
    <path fill="#000000" d="m183.38083 350.34647l0 -4.828125q-0.390625 0.5 -1.1 0.90625q-0.6875 0.4 -1.5 0.359375q-1.75 0 -3 -1.390625q-1.265625 -1.4 -1.3 -3.84375q0 -1.5 0.5 -2.65625q0.515625 -1.2 1.5 -1.796875q0.984375 -0.6 2.2 -0.609375q1.828125 0 2.9 1.546875l0 -1.328125l1.5 0l0 13.640625l-1.671875 0zm-5.140625 -8.734375q0 1.9 0.8 2.859375q0.796875 0.9 1.9 0.9375q1.0625 0 1.8 -0.890625q0.78125 -0.9 0.8 -2.765625q0 -2 -0.8 -2.953125q-0.8125 -1 -1.9 -1.0q-1.09375 0 -1.8 0.9375q-0.75 0.9 -0.8 2.875z" fill-rule="nonzero"/>
    <path fill="#000000" d="m183.5527 368.56522l0 -1.453125q-1.140625 1.7 -3.1 1.671875q-0.859375 0 -1.6 -0.328125q-0.75 -0.3 -1.1 -0.84375q-0.359375 -0.5 -0.5 -1.234375q-0.09375 -0.5 -0.1 -1.5625l0 -6.109375l1.671875 0l0 5.46875q0 1.3 0.1 1.765625q0.15625 0.7 0.7 1.03125q0.515625 0.4 1.3 0.375q0.75 0 1.4 -0.375q0.65625 -0.4 0.9 -1.046875q0.28125 -0.7 0.3 -1.9375l0 -5.28125l1.671875 0l0 9.859375l-1.5 0z" fill-rule="nonzero"/>
    <path fill="#000000" d="m183.84958 387.39334l1.71875 0.21875q-0.40625 1.5 -1.5 2.34375q-1.09375 0.8 -2.8 0.828125q-2.15625 0 -3.4 -1.328125q-1.265625 -1.3 -1.3 -3.734375q0 -2.5 1.3 -3.859375q1.28125 -1.4 3.3 -1.375q1.984375 0 3.2 1.34375q1.25 1.3 1.2 3.796875q0 0.1 -0 0.4375l-7.34375 0q0.09375 1.6 0.9 2.484375q0.828125 0.9 2.1 0.859375q0.90625 0 1.5 -0.46875q0.65625 -0.5 1 -1.546875zm-5.484375 -2.703125l5.5 0q-0.109375 -1.2 -0.6 -1.859375q-0.796875 -1 -2.1 -0.96875q-1.140625 0 -1.9 0.78125q-0.78125 0.8 -0.9 2.046875z" fill-rule="nonzero"/>
    <path fill="#000000" d="m176.4277 409.62772l1.65625 -0.265625q0.140625 1 0.8 1.53125q0.640625 0.5 1.8 0.515625q1.15625 0 1.7 -0.46875q0.5625 -0.5 0.6 -1.09375q0 -0.6 -0.5 -0.890625q-0.34375 -0.2 -1.7 -0.5625q-1.84375 -0.5 -2.6 -0.796875q-0.703125 -0.3 -1.1 -0.9375q-0.359375 -0.6 -0.4 -1.328125q0 -0.7 0.3 -1.21875q0.3125 -0.6 0.8 -0.9375q0.390625 -0.3 1.1 -0.484375q0.671875 -0.2 1.4 -0.203125q1.171875 0 2 0.34375q0.875 0.3 1.3 0.90625q0.421875 0.6 0.6 1.515625l-1.625 0.21875q-0.109375 -0.8 -0.7 -1.171875q-0.53125 -0.4 -1.5 -0.4375q-1.15625 0 -1.6 0.390625q-0.484375 0.4 -0.5 0.875q0 0.3 0.2 0.59375q0.203125 0.3 0.6 0.4375q0.25 0.1 1.5 0.4375q1.765625 0.5 2.5 0.765625q0.703125 0.3 1.1 0.875q0.40625 0.6 0.4 1.4375q0 0.8 -0.5 1.578125q-0.484375 0.7 -1.4 1.140625q-0.921875 0.4 -2.1 0.390625q-1.921875 0 -2.9 -0.796875q-1.0 -0.8 -1.3 -2.359375z" fill-rule="nonzero"/>
    <path fill="#000000" d="m180.75583 433.06522l0.234375 1.484375q-0.703125 0.1 -1.3 0.140625q-0.90625 0 -1.4 -0.28125q-0.5 -0.3 -0.7 -0.75q-0.203125 -0.5 -0.2 -1.984375l0 -5.65625l-1.234375 0l0 -1.3125l1.234375 0l0 -2.4375l1.65625 -1.0l0 3.4375l1.6875 0l0 1.3125l-1.6875 0l0 5.75q0 0.7 0.1 0.921875q0.09375 0.2 0.3 0.328125q0.203125 0.1 0.6 0.125q0.265625 0 0.7 -0.078125z" fill-rule="nonzero"/>
    <path fill="#cfe2f3" d="m219.34251 118.11373l30.661423 -30.661415l30.661407 30.661415l-15.330688 0l0 533.0552l-30.661423 0l0 -533.0552z" fill-rule="nonzero"/>
    <path stroke="#000000" stroke-width="2.0" stroke-linejoin="round" stroke-linecap="butt" d="m219.34251 118.11373l30.661423 -30.661415l30.661407 30.661415l-15.330688 0l0 533.0552l-30.661423 0l0 -533.0552z" fill-rule="nonzero"/>
    <path fill="#000000" d="m244.76747 333.03766l0 -13.59375l6.03125 0q1.8125 0 2.8 0.359375q0.953125 0.4 1.5 1.296875q0.5625 0.9 0.6 2.046875q0 1.5 -0.9 2.453125q-0.921875 1 -2.9 1.25q0.71875 0.3 1.1 0.671875q0.78125 0.7 1.5 1.8125l2.3749847 3.703125l-2.2656097 0l-1.796875 -2.828125q-0.796875 -1.2 -1.3 -1.875q-0.5 -0.7 -0.9 -0.90625q-0.40625 -0.3 -0.8 -0.359375q-0.3125 -0.1 -1 -0.078125l-2.078125 0l0 6.046875l-1.796875 0zm1.796875 -7.59375l3.859375 0q1.234375 0 1.9 -0.25q0.703125 -0.3 1.1 -0.828125q0.375 -0.6 0.4 -1.21875q0 -1 -0.7 -1.578125q-0.703125 -0.6 -2.2 -0.625l-4.296875 0l0 4.5z" fill-rule="nonzero"/>
    <path fill="#000000" d="m252.81609 351.86575l1.71875 0.21875q-0.40625 1.5 -1.5 2.34375q-1.09375 0.8 -2.8 0.828125q-2.15625 0 -3.4 -1.328125q-1.265625 -1.3 -1.3 -3.734375q0 -2.5 1.3 -3.859375q1.28125 -1.4 3.3 -1.375q1.984375 0 3.2 1.34375q1.25 1.3 1.2 3.796875q0 0.1 -0 0.4375l-7.34375 0q0.09375 1.6 0.9 2.484375q0.828125 0.9 2.1 0.859375q0.90625 0 1.5 -0.46875q0.65625 -0.5 1 -1.546875zm-5.484375 -2.703125l5.5 0q-0.109375 -1.2 -0.6 -1.859375q-0.796875 -1 -2.1 -0.96875q-1.140625 0 -1.9 0.78125q-0.78125 0.8 -0.9 2.046875z" fill-rule="nonzero"/>
    <path fill="#000000" d="m245.918 374.10013l1.65625 -0.265625q0.140625 1 0.8 1.53125q0.640625 0.5 1.8 0.515625q1.15625 0 1.7 -0.46875q0.5625 -0.5 0.6 -1.09375q0 -0.6 -0.5 -0.890625q-0.34375 -0.2 -1.7 -0.5625q-1.84375 -0.5 -2.6 -0.796875q-0.703125 -0.3 -1.1 -0.9375q-0.359375 -0.6 -0.4 -1.328125q0 -0.7 0.3 -1.21875q0.3125 -0.6 0.8 -0.9375q0.390625 -0.3 1.1 -0.484375q0.671875 -0.2 1.4 -0.203125q1.171875 0 2 0.34375q0.875 0.3 1.3 0.90625q0.421875 0.6 0.6 1.515625l-1.625 0.21875q-0.109375 -0.8 -0.7 -1.171875q-0.53125 -0.4 -1.5 -0.4375q-1.15625 0 -1.6 0.390625q-0.484375 0.4 -0.5 0.875q0 0.3 0.2 0.59375q0.203125 0.3 0.6 0.4375q0.25 0.1 1.5 0.4375q1.765625 0.5 2.5 0.765625q0.703125 0.3 1.1 0.875q0.40625 0.6 0.4 1.4375q0 0.8 -0.5 1.578125q-0.484375 0.7 -1.4 1.140625q-0.921875 0.4 -2.1 0.390625q-1.921875 0 -2.9 -0.796875q-1.0 -0.8 -1.3 -2.359375z" fill-rule="nonzero"/>
    <path fill="#000000" d="m246.06609 402.81888l0 -13.640625l1.53125 0l0 1.28125q0.53125 -0.8 1.2 -1.125q0.6875 -0.4 1.6 -0.375q1.265625 0 2.2 0.65625q0.96875 0.6 1.5 1.828125q0.5 1.2 0.5 2.59375q0 1.5 -0.5 2.734375q-0.546875 1.2 -1.6 1.84375q-1.03125 0.6 -2.2 0.640625q-0.84375 0 -1.5 -0.34375q-0.65625 -0.4 -1.1 -0.890625l0 4.796875l-1.671875 0zm1.515625 -8.65625q0 1.9 0.8 2.8125q0.78125 0.9 1.9 0.90625q1.109375 0 1.9 -0.9375q0.796875 -0.9 0.8 -2.921875q0 -1.9 -0.8 -2.8125q-0.765625 -0.9 -1.8 -0.9375q-1.0625 0 -1.9 1.0q-0.8125 1 -0.8 2.890625z" fill-rule="nonzero"/>
    <path fill="#000000" d="m245.44109 416.11575q0 -2.7 1.5 -4.0625q1.265625 -1.1 3.1 -1.09375q2.03125 0 3.3 1.34375q1.296875 1.3 1.3 3.671875q0 1.9 -0.6 3.0q-0.5625 1.1 -1.7 1.6875q-1.078125 0.6 -2.4 0.59375q-2.0625 0 -3.3 -1.328125q-1.28125 -1.3 -1.3 -3.8125zm1.71875 0q0 1.9 0.8 2.828125q0.828125 0.9 2.1 0.9375q1.25 0 2.1 -0.9375q0.828125 -1 0.8 -2.890625q0 -1.8 -0.8 -2.765625q-0.828125 -0.9 -2.1 -0.9375q-1.25 0 -2.1 0.9375q-0.828125 0.9 -0.8 2.828125z" fill-rule="nonzero"/>
    <path fill="#000000" d="m246.06609 443.03763l0 -9.859375l1.5 0l0 1.40625q1.09375 -1.6 3.1 -1.625q0.890625 0 1.6 0.328125q0.75 0.3 1.1 0.84375q0.375 0.5 0.5 1.21875q0.09375 0.5 0.1 1.625l0 6.0625l-1.671875 0l0 -6.0q0 -1 -0.2 -1.515625q-0.1875 -0.5 -0.7 -0.8125q-0.5 -0.3 -1.2 -0.296875q-1.0625 0 -1.8 0.671875q-0.765625 0.7 -0.8 2.578125l0 5.375l-1.671875 0z" fill-rule="nonzero"/>
    <path fill="#000000" d="m245.918 462.10013l1.65625 -0.265625q0.140625 1 0.8 1.53125q0.640625 0.5 1.8 0.515625q1.15625 0 1.7 -0.46875q0.5625 -0.5 0.6 -1.09375q0 -0.6 -0.5 -0.890625q-0.34375 -0.2 -1.7 -0.5625q-1.84375 -0.5 -2.6 -0.796875q-0.703125 -0.3 -1.1 -0.9375q-0.359375 -0.6 -0.4 -1.328125q0 -0.7 0.3 -1.21875q0.3125 -0.6 0.8 -0.9375q0.390625 -0.3 1.1 -0.484375q0.671875 -0.2 1.4 -0.203125q1.171875 0 2 0.34375q0.875 0.3 1.3 0.90625q0.421875 0.6 0.6 1.515625l-1.625 0.21875q-0.109375 -0.8 -0.7 -1.171875q-0.53125 -0.4 -1.5 -0.4375q-1.15625 0 -1.6 0.390625q-0.484375 0.4 -0.5 0.875q0 0.3 0.2 0.59375q0.203125 0.3 0.6 0.4375q0.25 0.1 1.5 0.4375q1.765625 0.5 2.5 0.765625q0.703125 0.3 1.1 0.875q0.40625 0.6 0.4 1.4375q0 0.8 -0.5 1.578125q-0.484375 0.7 -1.4 1.140625q-0.921875 0.4 -2.1 0.390625q-1.921875 0 -2.9 -0.796875q-1.0 -0.8 -1.3 -2.359375z" fill-rule="nonzero"/>
    <path fill="#000000" d="m252.81609 483.86575l1.71875 0.21875q-0.40625 1.5 -1.5 2.34375q-1.09375 0.8 -2.8 0.828125q-2.15625 0 -3.4 -1.328125q-1.265625 -1.3 -1.3 -3.734375q0 -2.5 1.3 -3.859375q1.28125 -1.4 3.3 -1.375q1.984375 0 3.2 1.34375q1.25 1.3 1.2 3.796875q0 0.1 -0 0.4375l-7.34375 0q0.09375 1.6 0.9 2.484375q0.828125 0.9 2.1 0.859375q0.90625 0 1.5 -0.46875q0.65625 -0.5 1 -1.546875zm-5.484375 -2.703125l5.5 0q-0.109375 -1.2 -0.6 -1.859375q-0.796875 -1 -2.1 -0.96875q-1.140625 0 -1.9 0.78125q-0.78125 0.8 -0.9 2.046875z" fill-rule="nonzero"/>
  </g>
</svg>
