<?xml version="1.0" encoding="utf-8"?>
<!-- Generator: Adobe Illustrator 21.0.2, SVG Export Plug-In . SVG Version: 6.00 Build 0)  -->
<svg version="1.1" id="gGRC" xmlns="http://www.w3.org/2000/svg" xmlns:xlink="http://www.w3.org/1999/xlink" x="0px" y="0px"
	 viewBox="0 0 929.7 280" style="enable-background:new 0 0 929.7 280;" xml:space="preserve">
<style type="text/css">
	.st0{clip-path:url(#SVGID_2_);}
	.st1{fill:#3369E8;}
	.st2{fill:#EEB211;}
	.st3{fill:#D50F25;}
	.st4{fill:#009925;}
	.st5{fill:#E1E2E5;}
	.st6{fill:#212121;fill-opacity:0.1;}
	.st7{fill:#FFFFFF;fill-opacity:0.2;}
	.st8{fill:url(#XMLID_5_);}
	.st9{fill:#F5F5F5;}
	.st10{opacity:1.000000e-02;}
	.st11{fill:#212121;}
	.st12{fill:#FFFFFF;fill-opacity:0.4;}
	.st13{opacity:0.1;fill:#1A237E;enable-background:new    ;}
	.st14{fill:url(#XMLID_6_);}
</style>
<g>
	<g id="XMLID_164_">
		<path id="XMLID_174_" d="M159.4,146.1c0,22-6.5,39.6-19.6,52.6C125,214.3,105.7,222,81.9,222c-22.7,0-42.1-7.9-58-23.7
			C8,182.6,0,163,0,139.7S8,96.8,23.9,81c15.9-15.8,35.3-23.7,58-23.7c11.3,0,22.1,2.2,32.4,6.6s18.5,10.3,24.7,17.6l-13.9,13.9
			C114.7,82.9,100.3,76.7,82,76.7c-16.6,0-30.9,5.8-43,17.5S20.8,121,20.8,139.7c0,18.6,6.1,33.8,18.2,45.5s26.5,17.5,43,17.5
			c17.6,0,32.3-5.9,44-17.6c7.6-7.6,12-18.3,13.2-31.9H82v-18.9h76.4C159,138.3,159.4,142.3,159.4,146.1z"/>
		<path id="XMLID_176_" d="M331.5,146.1c0,22-6.5,39.6-19.6,52.6C297.1,214.3,277.8,222,254,222c-22.8,0-42.1-7.9-58-23.7
			c-15.9-15.8-23.9-35.3-23.9-58.7c0-23.3,8-42.9,23.9-58.7c15.9-15.8,35.3-23.7,58-23.7c11.3,0,22.1,2.2,32.4,6.6
			s18.5,10.3,24.7,17.6l-13.9,13.9C286.8,83,272.4,76.7,254,76.7c-16.6,0-30.9,5.8-43,17.5s-18.2,26.8-18.2,45.5
			c0,18.6,6.1,33.8,18.2,45.5s26.4,17.5,43,17.5c17.6,0,32.3-5.9,44-17.6c7.6-7.6,12-18.3,13.2-31.9H254v-18.9h76.4
			C331.2,138.3,331.5,142.3,331.5,146.1z"/>
		<path id="XMLID_178_" d="M351.5,218.5V60.9h53.7c13.4,0,24.9,4.4,34.7,13.3s14.6,20.1,14.6,33.6c0,11-3.6,20.7-10.8,29.2
			c-7.2,8.4-16.1,13.8-26.9,16l-0.4,0.7l44.2,64.1v0.9h-24l-42.4-64h-22.5v63.8H351.5z M371.8,135.7h32.6c8.1,0,15-2.6,20.8-7.9
			s8.7-12,8.7-20c0-6.9-2.6-13.2-7.7-18.9c-5.1-5.7-12-8.6-20.5-8.6h-33.9L371.8,135.7L371.8,135.7z"/>
		<path id="XMLID_181_" d="M547.6,222c-23.2,0-42.6-7.8-58.3-23.6c-15.7-15.7-23.6-35.3-23.6-58.8s7.9-43.1,23.6-58.8
			c15.7-15.7,35.1-23.6,58.3-23.6c23.8,0,43.1,8.6,57.9,25.8l-14.1,13.6c-10.7-13.4-25.3-20-43.8-20c-17.2,0-31.7,5.8-43.5,17.4
			s-17.7,26.8-17.7,45.6c0,18.8,5.9,34,17.7,45.6s26.3,17.4,43.5,17.4c18.9,0,35.1-7.6,48.4-22.9l14.1,14.1
			c-7.2,8.7-16.2,15.5-27.1,20.6C572.1,219.5,560.3,222,547.6,222z"/>
	</g>
	<g id="XMLID_16_">
		<g id="XMLID_243_">
			<g>
				<defs>
					<path id="SVGID_1_" d="M776.4,274.4L655.7,153.6c-7.5-7.5-7.5-19.7,0-27.2L776.5,5.6c7.5-7.5,19.7-7.5,27.2,0l120.8,120.8
						c7.5,7.5,7.5,19.7,0,27.2L803.7,274.4C796.2,281.8,783.9,281.8,776.4,274.4z"/>
				</defs>
				<clipPath id="SVGID_2_">
					<use xlink:href="#SVGID_1_"  style="overflow:visible;"/>
				</clipPath>
				<g id="XMLID_245_" class="st0">
					<rect id="XMLID_166_" x="824.1" y="-7.9" class="st1" width="111.2" height="229.5"/>
					<rect id="XMLID_165_" x="641.7" y="-7.9" class="st2" width="188" height="114.2"/>
					<rect id="XMLID_163_" x="750.4" y="179.8" class="st3" width="184.9" height="106.3"/>
					<rect id="XMLID_157_" x="641.6" y="100.4" class="st4" width="108.7" height="185.7"/>
					<rect id="XMLID_54_" x="750.5" y="100.5" class="st5" width="79.2" height="79.2"/>
				</g>
			</g>
		</g>
		<path id="XMLID_52_" class="st6" d="M924.2,151.9L803.6,272.5c-7.5,7.5-19.5,7.5-27,0L655.9,151.9c-3.5-3.5-5.4-8.1-5.6-12.7
			c-0.2,5.1,1.6,10.4,5.6,14.3l120.6,120.6c7.5,7.5,19.5,7.5,27,0l120.6-120.6c3.9-3.9,5.8-9.1,5.6-14.3
			C929.6,143.8,927.7,148.4,924.2,151.9z"/>
		<path id="XMLID_51_" class="st7" d="M655.9,128.1L776.5,7.5c7.5-7.5,19.5-7.5,27,0l120.6,120.6c3.5,3.5,5.4,8.1,5.6,12.7
			c0.2-5.1-1.6-10.4-5.6-14.3L803.5,5.9c-7.5-7.5-19.5-7.5-27,0L655.9,126.5c-3.9,3.9-5.8,9.1-5.6,14.3
			C650.6,136.2,652.4,131.6,655.9,128.1z"/>
		
			<linearGradient id="XMLID_5_" gradientUnits="userSpaceOnUse" x1="839.3581" y1="612.717" x2="869.2766" y2="582.7986" gradientTransform="matrix(1 0 0 -1 0 802)">
			<stop  offset="0" style="stop-color:#212121;stop-opacity:0.15"/>
			<stop  offset="1" style="stop-color:#212121;stop-opacity:0"/>
		</linearGradient>
		<path id="XMLID_50_" class="st8" d="M837.3,94l-33.7-33.7c-7.5-7.5-19.5-7.5-27,0l-66.2,66.2c-7.5,7.5-7.5,19.5,0,27l33.7,33.7
			l32.5,32.5l40.7,40.7l93.2-93.2L837.3,94L837.3,94z"/>
		<g id="XMLID_9_">
			<g id="XMLID_213_">
				
					<image style="overflow:visible;opacity:0.15;enable-background:new    ;" width="371" height="373" id="XMLID_215_" xlink:href="844581B46D8156AA.png"  transform="matrix(0.4774 0 0 0.4749 702.7178 52.6875)">
				</image>
				<path id="XMLID_214_" class="st9" d="M776.6,219.7l-66.2-66.2c-7.5-7.5-7.5-19.5,0-27l66.2-66.2c7.5-7.5,19.5-7.5,27,0
					l66.2,66.2c7.5,7.5,7.5,19.5,0,27l-66.2,66.2C796.1,227.2,784,227.2,776.6,219.7z"/>
			</g>
			<g id="XMLID_209_" class="st10">
				<path id="XMLID_210_" class="st11" d="M790.1,54.7c4.9,0,9.8,1.9,13.5,5.6l66.2,66.2c7.5,7.5,7.5,19.5,0,27l-66.2,66.2
					c-3.7,3.7-8.6,5.6-13.5,5.6s-9.8-1.9-13.5-5.6l-66.2-66.2c-7.5-7.5-7.5-19.5,0-27l66.2-66.2C780.3,56.5,785.2,54.7,790.1,54.7
					 M790.1,54.4c-5.2,0-10,2-13.7,5.7l-66.2,66.2c-7.5,7.5-7.5,19.8,0,27.3l66.2,66.2c3.7,3.7,8.5,5.7,13.7,5.7
					c5.2,0,10-2,13.7-5.7l66.2-66.1c7.5-7.5,7.5-19.8,0-27.3l-66.2-66.2C800.1,56.4,795.2,54.4,790.1,54.4L790.1,54.4z"/>
			</g>
		</g>
		<path id="XMLID_48_" class="st12" d="M710.3,128.1l66.2-66.2c7.5-7.5,19.5-7.5,27,0l66.2,66.2c3.5,3.5,5.4,8.1,5.6,12.7
			c0.2-5.1-1.6-10.4-5.6-14.3l-66.2-66.2c-7.5-7.5-19.5-7.5-27,0l-66.2,66.2c-3.9,3.9-5.8,9.1-5.6,14.3
			C704.9,136.2,706.8,131.6,710.3,128.1z"/>
		<g id="XMLID_47_">
			<path id="XMLID_198_" class="st13" d="M869.8,153.6l-66.2,66.2c-7.5,7.5-19.5,7.5-27,0l-66.2-66.2c-3.5-3.5-5.4-8.1-5.6-12.7
				c-0.2,5.1,1.6,10.4,5.6,14.3l66.2,66.2c7.5,7.5,19.5,7.5,27,0l66.2-66.2c3.9-3.9,5.8-9.1,5.6-14.3
				C875.2,145.5,873.3,150.1,869.8,153.6z"/>
		</g>
		<g id="XMLID_194_">
			<g id="XMLID_206_">
				<g id="XMLID_207_">
					<polygon id="XMLID_208_" class="st11" points="751.4,165.4 770.8,184.8 790.1,204.2 809.5,184.8 828.8,165.4 848.2,146.1 
						828.8,126.7 809.5,146.1 790.1,165.4 770.8,146.1 					"/>
				</g>
			</g>
		</g>
		<g id="XMLID_162_">
			<g id="XMLID_200_">
				<g id="XMLID_201_">
					<polygon id="XMLID_202_" class="st2" points="745.6,159.7 731.9,146.1 751.3,126.7 765,140.4 					"/>
				</g>
			</g>
		</g>
		<g id="XMLID_17_">
			
				<radialGradient id="XMLID_6_" cx="658.1378" cy="793.6761" r="375.6137" gradientTransform="matrix(1 0 0 -1 0 802)" gradientUnits="userSpaceOnUse">
				<stop  offset="0" style="stop-color:#FFFFFF;stop-opacity:0.1"/>
				<stop  offset="1" style="stop-color:#FFFFFF;stop-opacity:0"/>
			</radialGradient>
			<path id="XMLID_15_" class="st14" d="M803.6,5.9c-7.5-7.5-19.5-7.5-27,0L655.9,126.5c-7.5,7.5-7.5,19.5,0,27l120.6,120.6
				c7.5,7.5,19.5,7.5,27,0l120.6-120.6c7.5-7.5,7.5-19.5,0-27L803.6,5.9z"/>
		</g>
	</g>
</g>
</svg>
