<?xml version="1.0" encoding="utf-8"?>
<!-- Generator: Adobe Illustrator 21.0.2, SVG Export Plug-In . SVG Version: 6.00 Build 0)  -->
<svg version="1.1" id="Layer_1" xmlns="http://www.w3.org/2000/svg" xmlns:xlink="http://www.w3.org/1999/xlink" x="0px" y="0px"
	 viewBox="0 0 924.5 268.7" style="enable-background:new 0 0 924.5 268.7;" xml:space="preserve">
<style type="text/css">
	.st0{fill:#FFFFFF;}
</style>
<g>
	<g id="gGRC">
		<g id="XMLID_4_">
			<g id="XMLID_164_">
				<path id="XMLID_174_" class="st0" d="M159.4,141.3c0,22-6.5,39.6-19.6,52.6c-14.8,15.6-34.1,23.3-57.9,23.3
					c-22.7,0-42.1-7.9-58-23.7C8,177.8,0,158.2,0,134.9S8,92,23.9,76.2c15.9-15.8,35.3-23.7,58-23.7c11.3,0,22.1,2.2,32.4,6.6
					s18.5,10.3,24.7,17.6l-13.9,13.9C114.7,78.1,100.3,71.9,82,71.9c-16.6,0-30.9,5.8-43,17.5s-18.2,26.8-18.2,45.5
					c0,18.6,6.1,33.8,18.2,45.5s26.5,17.5,43,17.5c17.6,0,32.3-5.9,44-17.6c7.6-7.6,12-18.3,13.2-31.9H82v-19h76.4
					C159,133.5,159.4,137.5,159.4,141.3z"/>
				<path id="XMLID_176_" class="st0" d="M331.5,141.3c0,22-6.5,39.6-19.6,52.6c-14.8,15.6-34.1,23.3-57.9,23.3
					c-22.8,0-42.1-7.9-58-23.7c-15.9-15.8-23.9-35.3-23.9-58.7c0-23.3,8-42.9,23.9-58.7c15.9-15.8,35.3-23.7,58-23.7
					c11.3,0,22.1,2.2,32.4,6.6s18.5,10.3,24.7,17.6l-13.9,13.9c-10.4-12.5-24.8-18.7-43.1-18.7c-16.6,0-30.9,5.8-43,17.5
					s-18.2,26.8-18.2,45.5c0,18.6,6.1,33.8,18.2,45.5s26.4,17.5,43,17.5c17.6,0,32.3-5.9,44-17.6c7.6-7.6,12-18.3,13.2-31.9H254
					v-18.9h76.4C331.2,133.5,331.5,137.5,331.5,141.3z"/>
				<path id="XMLID_178_" class="st0" d="M351.5,213.7V56.1h53.7c13.4,0,24.9,4.4,34.7,13.3s14.6,20.1,14.6,33.6
					c0,11-3.6,20.7-10.8,29.2c-7.2,8.4-16.1,13.8-26.9,16l-0.4,0.7l44.2,64.1v0.9h-24l-42.5-63.8h-22.5v63.8h-20.1V213.7z
					 M371.8,130.9h32.6c8.1,0,15-2.6,20.8-7.9s8.7-12,8.7-20c0-6.9-2.6-13.2-7.7-18.9c-5.1-5.7-12-8.6-20.5-8.6h-33.9L371.8,130.9
					L371.8,130.9z"/>
				<path id="XMLID_181_" class="st0" d="M547.6,217.2c-23.2,0-42.6-7.8-58.3-23.6c-15.7-15.7-23.6-35.3-23.6-58.8
					s7.9-43.1,23.6-58.8c15.7-15.7,35.1-23.6,58.3-23.6c23.8,0,43.1,8.6,57.9,25.8l-14.1,13.6c-10.7-13.4-25.3-20-43.8-20
					c-17.2,0-31.7,5.8-43.5,17.4s-17.7,26.8-17.7,45.6c0,18.8,5.9,34,17.7,45.6s26.3,17.4,43.5,17.4c18.9,0,35.1-7.6,48.4-22.9
					l14.1,14.1c-7.2,8.7-16.2,15.5-27.1,20.6C572.1,214.7,560.3,217.2,547.6,217.2z"/>
			</g>
			<g id="XMLID_6_">
				<polygon id="XMLID_3_" class="st0" points="842.4,105.9 790.3,158 761.4,129.2 732.6,158 761.4,186.8 785.2,210.6 790.3,215.7
					871.2,134.7 				"/>
				<path id="XMLID_7_" class="st0" d="M916.5,115.2L809.2,7.9C803.9,2.6,797,0,790,0c-6.9,0-13.9,2.6-19.2,7.9L663.6,115.2
					c-10.6,10.6-10.6,27.7,0,38.3l107.3,107.3c5.3,5.3,12.2,7.9,19.2,7.9c6.9,0,13.9-2.6,19.2-7.9l107.3-107.3
					C927.1,143,927.1,125.8,916.5,115.2z M790.1,241.7L682.8,134.4L790,27.1l0,0l107.3,107.3L790.1,241.7z"/>
			</g>
		</g>
	</g>
	<g id="Layer_2">
	</g>
</g>
</svg>
